<svg id="W2PEND.tif" xmlns="http://www.w3.org/2000/svg" width="66.248" height="66.247" viewBox="0 0 66.248 66.247">
  <g id="Group_368" data-name="Group 368" transform="translate(0 0)">
    <path id="Path_196" data-name="Path 196" d="M-283.893,700.049h4.8a27.117,27.117,0,0,1,2.894.362,33.329,33.329,0,0,1,11.072,3.981,33.271,33.271,0,0,1,15.213,19.251,25.488,25.488,0,0,1,1.142,5.746c.049.613.094,1.226.14,1.838v4.359c-.035.42-.059.842-.108,1.261a34.192,34.192,0,0,1-1.733,7.476,33.151,33.151,0,0,1-23.095,21.024,27.493,27.493,0,0,1-6.262.9,37.11,37.11,0,0,1-6.385-.175,34.246,34.246,0,0,1-9.384-2.748,33.438,33.438,0,0,1-11.555-8.762,33.159,33.159,0,0,1-6.881-13.734,27.4,27.4,0,0,1-.773-4.5c-.1-1.432-.071-2.868-.056-4.3a27.551,27.551,0,0,1,.49-5.123,32.945,32.945,0,0,1,9.2-17.232,32.676,32.676,0,0,1,14.629-8.535,26.388,26.388,0,0,1,5.467-1C-284.679,700.11-284.286,700.077-283.893,700.049Zm29.737,32.943a21.373,21.373,0,0,0-.19-3.311,27.25,27.25,0,0,0-1.9-7.061,27.211,27.211,0,0,0-11.4-13.112,27.473,27.473,0,0,0-10.681-3.635c-.265-.034-.349.1-.356.326-.018.579-.044,1.158-.054,1.737a6.937,6.937,0,0,1-.082.988c-.066.4-.178.489-.581.522a2.61,2.61,0,0,0-1.48.61.5.5,0,0,0-.213.337.328.328,0,0,1-.239.309c-.138.027-.206-.1-.273-.2a2.575,2.575,0,0,0-.907-.832,6.6,6.6,0,0,1-1.719-1.366,12.743,12.743,0,0,0-2.453-2,.541.541,0,0,0-.467-.08c-.451.126-.909.228-1.36.357a27.294,27.294,0,0,0-18.654,16.611A25.294,25.294,0,0,0-309,731.806a30.759,30.759,0,0,0,.26,5.527,27.915,27.915,0,0,0,1.791,6.44c.285.719.373.746,1.015.317a10.633,10.633,0,0,1,2.014-1.135.5.5,0,0,1,.662.184,2.337,2.337,0,0,0,1.93,1c.263-.007.286.048.161.3a1.993,1.993,0,0,0-.2,1.418,2.987,2.987,0,0,1-.166,1.83,4.783,4.783,0,0,0-.147.5,20.989,20.989,0,0,0-.287,3.318.407.407,0,0,0,.176.326c.405.388.805.781,1.215,1.165a27.857,27.857,0,0,0,11.759,6.668,24.382,24.382,0,0,0,6.062.914c1.048.018,2.1-.02,3.143-.076a21.122,21.122,0,0,0,2.2-.179,27.153,27.153,0,0,0,10.595-4.024,30.45,30.45,0,0,0,7.36-6.844c.251-.319.242-.331-.11-.517a18.4,18.4,0,0,1-2.208-1.355.426.426,0,0,1-.186-.594,2.573,2.573,0,0,0,.11-2.31c-.087-.163.018-.253.19-.276a2.9,2.9,0,0,0,1.609-.783.887.887,0,0,1,.477-.259,14.6,14.6,0,0,0,3.088-.9,1.917,1.917,0,0,0,1.244-1.42A28.882,28.882,0,0,0-254.156,732.992Z" transform="translate(314.88 -700.049)" fill="#7654b5"/>
    <path id="Path_197" data-name="Path 197" d="M-220.153,910.008c.043-.309.084-.619.13-.927.026-.172.168-.259.288-.354a49.721,49.721,0,0,1,8.308-5.5,25.683,25.683,0,0,1,6.5-2.4c.2-.041.4-.074.6-.108.079-.013.174-.048.224.043s-.025.158-.072.222a11.5,11.5,0,0,1-.918,1.064A29.982,29.982,0,0,1-211.316,907a52.862,52.862,0,0,1-7.207,3.631.8.8,0,0,1-.83-.033,1.217,1.217,0,0,0-.511-.2C-220.105,910.364-220.164,910.221-220.153,910.008Z" transform="translate(235.941 -867.264)" fill="#7654b5"/>
    <path id="Path_198" data-name="Path 198" d="M-120.953,787.171a33.293,33.293,0,0,1-.936,8.007c-.172.658-.4,1.3-.612,1.946-.027.08-.022.211-.138.208-.088,0-.1-.119-.133-.192a17.484,17.484,0,0,1-.974-3.441,29.984,29.984,0,0,1-.564-5,46.484,46.484,0,0,1,.5-8.516,2.461,2.461,0,0,1,1.087-1.551c.121-.1.2.009.286.068a2.564,2.564,0,0,1,1.043,2A51.775,51.775,0,0,1-120.953,787.171Z" transform="translate(156.097 -765.499)" fill="#7654b5"/>
    <path id="Path_199" data-name="Path 199" d="M-90.948,911.912a.781.781,0,0,1-.321-.079,44.5,44.5,0,0,1-10.269-5.7,28.186,28.186,0,0,1-3.852-3.625c-.128-.14-.384-.3-.273-.488s.377-.038.566,0a19.789,19.789,0,0,1,4.516,1.412,47.8,47.8,0,0,1,9.758,5.932c.223.177.433.371.639.567a2.036,2.036,0,0,1,.552,1.264.305.305,0,0,1-.163.35A5.31,5.31,0,0,1-90.948,911.912Z" transform="translate(140.553 -868.29)" fill="#7654b5"/>
    <path id="Path_200" data-name="Path 200" d="M-94.754,972.748c.936.04,1.872.082,2.808.119a.292.292,0,0,1,.3.2c.14.36.281.719.427,1.076a.2.2,0,0,1-.126.3,38.362,38.362,0,0,1-10.386,3.318,17.173,17.173,0,0,1-2.5.216,2.446,2.446,0,0,1-.6-.08c-.087-.022-.2-.038-.223-.139s.06-.17.131-.225c.3-.239.6-.484.916-.708a31.088,31.088,0,0,1,7.754-3.906,2.506,2.506,0,0,1,.615-.143c.292-.024.587-.006.881-.006Z" transform="translate(140.025 -927.301)" fill="#7654b5"/>
    <path id="Path_201" data-name="Path 201" d="M-204.643,971.625a7.557,7.557,0,0,1,4.117.8,45.216,45.216,0,0,1,5.763,3.061,6.838,6.838,0,0,1,1.237.964c.073.076.208.151.164.263s-.2.063-.3.065a22.437,22.437,0,0,1-6.978-1.008,47.849,47.849,0,0,1-6.007-2.253c-.744-.338-.741-.341-.455-1.076a1.975,1.975,0,0,0,.1-.342c.077-.4.117-.46.53-.469C-205.833,971.615-205.2,971.625-204.643,971.625Z" transform="translate(225.211 -926.331)" fill="#7654b5"/>
    <path id="Path_202" data-name="Path 202" d="M-189.935,778.947a2.578,2.578,0,0,1-.137.334q-.837,1.506-1.686,3.005a.941.941,0,0,1-.218.246,32.435,32.435,0,0,1-8,5.083c-.236.1-.482.18-.725.265-.092.032-.208.1-.281.007s.016-.193.059-.281a11.735,11.735,0,0,1,.929-1.563,28.5,28.5,0,0,1,4.277-4.628,50.085,50.085,0,0,1,4.636-3.645c.2-.144.324-.148.447.088a3.04,3.04,0,0,0,.572.773A.361.361,0,0,1-189.935,778.947Z" transform="translate(219.983 -764.734)" fill="#7654b5"/>
    <path id="Path_203" data-name="Path 203" d="M-19.806,858.023a20.821,20.821,0,0,1,.282-4.038c.021-.119-.013-.3.125-.332.117-.027.179.137.243.233a14.534,14.534,0,0,1,1.369,2.792,29.761,29.761,0,0,1,1.49,5.752,40.987,40.987,0,0,1,.543,4.7c.029.451.03.449-.411.514-.263.039-.528.075-.788.132a.381.381,0,0,1-.434-.156c-.169-.24-.343-.479-.493-.731-.432-.727-.84-1.468-1.284-2.187a3.1,3.1,0,0,1-.3-1.246A33.556,33.556,0,0,1-19.806,858.023Z" transform="translate(68.986 -828.052)" fill="#7654b5"/>
    <path id="Path_204" data-name="Path 204" d="M-82.965,788.231c.009.147-.058.163-.141.142s-.194-.055-.289-.089a23.73,23.73,0,0,1-4.687-2.439,37.768,37.768,0,0,1-3.227-2.312,5.119,5.119,0,0,1-1.278-1.5c-.464-.815-.923-1.632-1.394-2.443a.32.32,0,0,1,.049-.458c.278-.268.542-.55.806-.831a.215.215,0,0,1,.33-.04,41.329,41.329,0,0,1,8.1,7.239,13.823,13.823,0,0,1,1.626,2.49C-83.025,788.077-82.991,788.172-82.965,788.231Z" transform="translate(130.856 -765.175)" fill="#7654b5"/>
    <path id="Path_205" data-name="Path 205" d="M-230.28,857.74a32.4,32.4,0,0,1-.373,5.71,4.378,4.378,0,0,1-.536,1.438c-.467.813-.935,1.626-1.395,2.443-.128.227-.266.323-.532.2a2.052,2.052,0,0,0-.809-.145c-.318-.009-.415-.1-.408-.42a22.7,22.7,0,0,1,.232-2.467,47.424,47.424,0,0,1,1.093-5.819,17.921,17.921,0,0,1,1.819-4.6c.056-.095.109-.193.173-.282.078-.108.137-.275.3-.239s.164.21.191.34a12.707,12.707,0,0,1,.237,1.968C-230.258,856.49-230.28,857.115-230.28,857.74Z" transform="translate(247.757 -827.971)" fill="#7654b5"/>
    <path id="Path_206" data-name="Path 206" d="M-101.843,949.917a29.125,29.125,0,0,1,3.868.225,2.6,2.6,0,0,1,.818.234c1.191.578,2.423,1.062,3.639,1.583.11.047.217.1.327.146.155.066.186.167.086.3-.23.309-.459.62-.7.924-.074.095-.194.088-.3.1a15.213,15.213,0,0,1-2.532-.025,40.335,40.335,0,0,1-4.732-.528,20.661,20.661,0,0,1-5.808-1.751,1.991,1.991,0,0,1-.22-.114c-.139-.093-.4-.127-.365-.318s.28-.175.444-.212a26.538,26.538,0,0,1,3.707-.508C-102.971,949.922-102.328,949.911-101.843,949.917Z" transform="translate(142.283 -908.274)" fill="#7654b5"/>
    <path id="Path_207" data-name="Path 207" d="M-160.836,798.094a19.049,19.049,0,0,1,1.349-6.118,42.011,42.011,0,0,1,3.006-6.315c.073-.128.155-.25.232-.375a.666.666,0,0,1,.723-.383,1.492,1.492,0,0,0,.573-.058c.413-.1.478-.044.423.385-.061.473-.152.942-.218,1.415-.132.955-.253,1.911-.383,2.866a3.5,3.5,0,0,1-.315,1.024,31.077,31.077,0,0,1-4.22,6.732,10.276,10.276,0,0,1-.884.908c-.071.066-.139.2-.24.151C-160.91,798.272-160.828,798.128-160.836,798.094Z" transform="translate(186.525 -770.678)" fill="#7654b5"/>
    <path id="Path_208" data-name="Path 208" d="M-99.342,797.507c0,.193,0,.386,0,.579,0,.081.006.19-.078.221s-.139-.069-.194-.126a21.571,21.571,0,0,1-2.106-2.585,42.208,42.208,0,0,1-3.154-5.4,4.088,4.088,0,0,1-.222-1.351c-.156-1.193-.263-2.392-.482-3.576-.008-.045-.015-.091-.021-.136-.04-.334,0-.38.331-.325a3.708,3.708,0,0,0,.875.089.452.452,0,0,1,.4.209,5.773,5.773,0,0,1,.517.814,41.125,41.125,0,0,1,3.45,7.864A12.49,12.49,0,0,1-99.342,797.507Z" transform="translate(140.488 -770.665)" fill="#7654b5"/>
    <path id="Path_209" data-name="Path 209" d="M-214.142,874.09c-.023.092-.049.218-.085.341a27.1,27.1,0,0,1-3.988,8.067,5.129,5.129,0,0,1-1.052,1.085c-1.026.792-2.044,1.593-3.064,2.393-.332.26-.412.225-.463-.157a1.952,1.952,0,0,0-.371-.764.371.371,0,0,1-.017-.433,37.516,37.516,0,0,1,6.507-8.853,17.328,17.328,0,0,1,1.927-1.646,2.523,2.523,0,0,1,.381-.219C-214.225,873.839-214.134,873.882-214.142,874.09Z" transform="translate(238.515 -844.907)" fill="#7654b5"/>
    <path id="Path_210" data-name="Path 210" d="M-60.873,875.261a.978.978,0,0,1,.348.168,14.557,14.557,0,0,1,2.836,2.479,40.474,40.474,0,0,1,5.644,7.9.553.553,0,0,1,.022.588c-.141.268-.262.547-.38.826-.077.182-.185.213-.341.1-.264-.184-.533-.361-.788-.557-.859-.662-1.7-1.35-2.575-1.988a3.61,3.61,0,0,1-.826-.883,30.475,30.475,0,0,1-3.967-7.935,3.168,3.168,0,0,1-.109-.511C-61.023,875.36-61,875.268-60.873,875.261Z" transform="translate(103.321 -846.061)" fill="#7654b5"/>
    <path id="Path_211" data-name="Path 211" d="M-201.686,949.009c1.313.042,2.626.077,3.934.2a11.18,11.18,0,0,1,1.759.322c.138.036.328.052.354.217s-.161.229-.284.3a13.873,13.873,0,0,1-2.994,1.177,33.614,33.614,0,0,1-5.985,1.065,37.821,37.821,0,0,1-4.045.159.871.871,0,0,1-.911-.459,3.548,3.548,0,0,0-.422-.542c-.1-.131-.075-.242.083-.306a50.946,50.946,0,0,1,4.78-1.918,9.655,9.655,0,0,1,2.353-.214C-202.606,949-202.146,949.009-201.686,949.009Z" transform="translate(227.762 -907.514)" fill="#7654b5"/>
    <path id="Path_212" data-name="Path 212" d="M-73.212,993.145c-.177.013-.223-.047-.215-.162a1.09,1.09,0,0,1,.142-.415,19.351,19.351,0,0,1,2.425-3.674c.821-.98,1.708-1.9,2.623-2.794a5.473,5.473,0,0,1,1.694-1.163q.914-.387,1.817-.8a.556.556,0,0,1,.524,0c.171.088.353.156.53.233.362.158.363.161.14.477a28.865,28.865,0,0,1-3.686,4.275,22.689,22.689,0,0,1-3.967,3.1,9.206,9.206,0,0,1-1.764.841C-73.053,993.1-73.16,993.13-73.212,993.145Z" transform="translate(113.668 -936.739)" fill="#7654b5"/>
    <path id="Path_213" data-name="Path 213" d="M-77.881,772.136a26.238,26.238,0,0,1-7.066-1.192,4.923,4.923,0,0,1-1.43-.761c-.506-.352-1.005-.712-1.514-1.058a.569.569,0,0,1-.276-.475c-.014-.256-.057-.511-.089-.766-.022-.176.04-.257.231-.236a26.678,26.678,0,0,1,9.994,2.682,14.927,14.927,0,0,1,2.169,1.412c.062.049.169.088.145.18s-.132.085-.212.1A11.325,11.325,0,0,1-77.881,772.136Z" transform="translate(126.027 -756.38)" fill="#7654b5"/>
    <path id="Path_214" data-name="Path 214" d="M-215.655,982.772c.09.033.177.06.26.1.582.251,1.164.505,1.746.756a4.9,4.9,0,0,1,1.423.932,27.731,27.731,0,0,1,4.491,5.245,13.344,13.344,0,0,1,.972,1.824c.032.073.094.156.029.231s-.157.027-.232,0c-.234-.081-.471-.157-.7-.257a16.758,16.758,0,0,1-4.854-3.351,41.425,41.425,0,0,1-4.209-4.739c-.186-.243-.18-.263.112-.375C-216.3,983.012-215.978,982.894-215.655,982.772Z" transform="translate(233.188 -935.655)" fill="#7654b5"/>
    <path id="Path_215" data-name="Path 215" d="M-213.764,772.263a5.879,5.879,0,0,1-1.373-.083c-.084-.021-.211,0-.236-.108s.1-.144.162-.2a13.716,13.716,0,0,1,3.48-2.053,28.6,28.6,0,0,1,7.021-1.841,10.852,10.852,0,0,1,1.616-.166c.315,0,.37.073.3.387a2.453,2.453,0,0,0-.1.569c0,.194-.148.287-.272.393a10.42,10.42,0,0,1-4.754,2.423A30.806,30.806,0,0,1-213.764,772.263Z" transform="translate(231.959 -756.519)" fill="#7654b5"/>
    <path id="Path_216" data-name="Path 216" d="M10.019,867.651a22.431,22.431,0,0,1-1.485,7.511c-.369,1.079-.83,2.121-1.3,3.158-.1.23-.211.246-.377.072a.759.759,0,0,0-.189-.159,1.228,1.228,0,0,1-.644-1.126,13.293,13.293,0,0,1-.138-2.689,13.185,13.185,0,0,1,.654-2.5,24.86,24.86,0,0,1,2.277-5.1,5.5,5.5,0,0,1,.707-.983c.194-.2.3-.174.368.1A10.283,10.283,0,0,1,10.019,867.651Z" transform="translate(47.604 -838.095)" fill="#7654b5"/>
    <path id="Path_217" data-name="Path 217" d="M-256.136,873.564c-.037.766-.113,1.616-.238,2.461a.5.5,0,0,1-.24.379,5.344,5.344,0,0,0-.5.386c-.276.223-.283.223-.437-.109a35.683,35.683,0,0,1-1.365-3.311,24.013,24.013,0,0,1-1.2-4.663,20.016,20.016,0,0,1-.092-4.207.462.462,0,0,1,.005-.055c.026-.134.016-.315.153-.362.157-.053.225.126.3.23a17.325,17.325,0,0,1,2.228,4.168,26.822,26.822,0,0,1,1.336,4.225A4.824,4.824,0,0,1-256.136,873.564Z" transform="translate(269.377 -836.739)" fill="#7654b5"/>
    <path id="Path_218" data-name="Path 218" d="M1.458,895.137a7.389,7.389,0,0,1-1.989,5.357c-1.141,1.323-2.273,2.654-3.331,4.045a2.768,2.768,0,0,1-1.026.859,1.276,1.276,0,0,1-1.017.065c-.164-.06-.324-.132-.49-.184a1.406,1.406,0,0,1-1.037-1.455A2.683,2.683,0,0,1-7,902.257a1.619,1.619,0,0,1,2.521.117.793.793,0,0,1-.027.928.734.734,0,0,1-.864.144c-.069-.026-.135-.059-.2-.084-.159-.059-.357-.19-.461.021-.091.187.115.286.25.371a1.1,1.1,0,0,0,1.8-.637A12.7,12.7,0,0,1-3.1,900.95a37.848,37.848,0,0,1,3.865-6.416c.117-.154.239-.3.365-.45.051-.06.107-.141.2-.108.081.028.079.116.1.186a.55.55,0,0,1,.025.135C1.459,894.555,1.458,894.812,1.458,895.137Z" transform="translate(58.671 -861.651)" fill="#7654b5"/>
    <path id="Path_219" data-name="Path 219" d="M-275.677,894.307c0-.276-.011-.552.005-.826.007-.12.005-.286.153-.327.131-.036.209.1.283.186.195.233.386.468.566.713a39.507,39.507,0,0,1,4.122,7.249,4.464,4.464,0,0,1,.253.785,1.23,1.23,0,0,0,.809.971,1.379,1.379,0,0,0,1.249-.349.183.183,0,0,0,.066-.264.193.193,0,0,0-.285-.072c-.122.064-.24.137-.367.19a.685.685,0,0,1-.855-.149.8.8,0,0,1,0-1,1.532,1.532,0,0,1,2.458.007,2.439,2.439,0,0,1,.3,2.188.877.877,0,0,1-.214.35,2.066,2.066,0,0,1-2.858.09c-.586-.576-1.026-1.273-1.551-1.9-.761-.909-1.515-1.824-2.272-2.737a7.735,7.735,0,0,1-1.862-4.252c-.027-.282,0-.569,0-.854Z" transform="translate(282.214 -860.967)" fill="#7654b5"/>
    <path id="Path_220" data-name="Path 220" d="M-103.266,755.983c-1.359-.022-2.721.033-4.08-.054-.627-.04-1.229-.22-1.848-.3-.793-.107-1.19.2-1.257.99-.013.156-.034.311-.044.466-.006.094,0,.2.116.222a.211.211,0,0,0,.226-.126,1.13,1.13,0,0,0,.111-.424c.069-.5.252-.7.641-.726a.8.8,0,0,1,.816.647,1.557,1.557,0,0,1-1.845,1.96,3.432,3.432,0,0,1-1.006-.437,1.4,1.4,0,0,1-.682-1.506,2.834,2.834,0,0,1,.228-.876,1.524,1.524,0,0,1,1.012-.864,16.7,16.7,0,0,1,2.312-.361c1.323-.167,2.629-.431,3.944-.643a7.784,7.784,0,0,1,5.871,1.42c.1.071.245.143.22.292-.028.169-.2.176-.33.2a7.411,7.411,0,0,1-1.316.118C-101.206,755.992-102.236,755.983-103.266,755.983Z" transform="translate(145.926 -744.879)" fill="#7654b5"/>
    <path id="Path_221" data-name="Path 221" d="M-231.462,963.052a.575.575,0,0,1,.268-.642c.177-.146.342-.307.5-.47a1.349,1.349,0,0,1,1.394-.361,2.333,2.333,0,0,1,1.51,1.159,1.581,1.581,0,0,1-1.265,2.246.81.81,0,0,1-.8-.56c-.09-.295.013-.525.348-.765a1.048,1.048,0,0,0,.336-.32c.09-.163.035-.249-.148-.238a.454.454,0,0,0-.207.065,2.775,2.775,0,0,0-.331.245,1.061,1.061,0,0,0,.123,1.836,2.733,2.733,0,0,1,.606.636,47.466,47.466,0,0,1,4.511,7.536,5,5,0,0,1,.2.542c.027.078.054.167-.013.235-.085.085-.176.02-.253-.019a11.126,11.126,0,0,1-2-1.31,8.709,8.709,0,0,1-2.354-3.188,19.388,19.388,0,0,1-1.283-3.311,4.343,4.343,0,0,0-.57-1.281A3.587,3.587,0,0,1-231.462,963.052Z" transform="translate(245.385 -917.943)" fill="#7654b5"/>
    <path id="Path_222" data-name="Path 222" d="M-35.342,962.516c.046,0,.092,0,.138,0a2.15,2.15,0,0,1,1.663,2.21,4.558,4.558,0,0,1-.594,1.417,7.833,7.833,0,0,0-.657,1.541,14.7,14.7,0,0,1-2.488,5.127,8.076,8.076,0,0,1-2.777,2.224,2.375,2.375,0,0,1-.277.123c-.194.061-.289-.017-.253-.218a2.452,2.452,0,0,1,.237-.645,46.575,46.575,0,0,1,4.47-7.341,6.084,6.084,0,0,1,.774-.822c.858-.793.21-1.709-.542-2.028a.16.16,0,0,0-.231.081.225.225,0,0,0,.069.3c.162.135.34.253.492.4.335.321.329.467,0,.8a.85.85,0,0,1-1.387.055c-1.1-1.025-.888-1.646-.138-2.441A2.183,2.183,0,0,1-35.342,962.516Z" transform="translate(86.306 -918.773)" fill="#7654b5"/>
    <path id="Path_223" data-name="Path 223" d="M-192.723,754.59a19.994,19.994,0,0,1,4.077.6,8.229,8.229,0,0,0,1.829.224,4.87,4.87,0,0,1,1.225.168,1.511,1.511,0,0,1,1.028.924,2.559,2.559,0,0,1,.2,1.373,1.131,1.131,0,0,1-.49.8,3.044,3.044,0,0,1-1.86.588,1.043,1.043,0,0,1-.59-.2,1.688,1.688,0,0,1-.559-1.969.684.684,0,0,1,.828-.431.672.672,0,0,1,.607.676,1.3,1.3,0,0,0,.046.381c.037.088.077.176.192.163.094-.01.134-.089.161-.17a1.137,1.137,0,0,0-1.177-1.469,35.053,35.053,0,0,1-6.979.391,23.092,23.092,0,0,1-3.469-.134c-.152-.022-.361-.008-.407-.17-.051-.179.158-.246.282-.327A9.147,9.147,0,0,1-192.723,754.59Z" transform="translate(217.536 -745.5)" fill="#7654b5"/>
    <path id="Path_224" data-name="Path 224" d="M-215.3,795.429c-.063,0-.136.027-.176-.039s.019-.121.052-.172a4.643,4.643,0,0,1,.779-.889,27.81,27.81,0,0,1,2.483-1.966,4.423,4.423,0,0,1,1.93-.823c1.034-.163,2.044-.445,3.068-.661.117-.025.292-.118.351.005s-.12.205-.213.284a25.959,25.959,0,0,0-2.371,2.183,6.142,6.142,0,0,1-3.253,1.785A14.29,14.29,0,0,1-215.3,795.429Z" transform="translate(232.05 -775.694)" fill="#7654b5"/>
    <path id="Path_225" data-name="Path 225" d="M-185.643,993.386a.455.455,0,0,1,.33.054c1.317.465,2.638.918,3.994,1.254a4.67,4.67,0,0,1,1.985,1.144,9.788,9.788,0,0,1,1.964,2.365,1.522,1.522,0,0,1,.133.271c.044.13,0,.213-.152.222a1.68,1.68,0,0,1-.49-.068,20.011,20.011,0,0,1-4.02-1.5,3.4,3.4,0,0,1-.969-.767q-1.347-1.42-2.682-2.851C-185.578,993.479-185.6,993.441-185.643,993.386Z" transform="translate(207.181 -944.488)" fill="#7654b5"/>
    <path id="Path_226" data-name="Path 226" d="M-242.29,861.256c-.086-.289-.155-.544-.237-.794-.346-1.056-.689-2.113-1.049-3.163a2.4,2.4,0,0,1-.152-1.071,28.632,28.632,0,0,1,.617-4.106,3.668,3.668,0,0,1,.176-.521c.093-.216.2-.232.326-.029a11.406,11.406,0,0,1,.549,1.018,8.708,8.708,0,0,1,.872,3.027,6.436,6.436,0,0,1-.2,1.745c-.238,1.2-.5,2.39-.751,3.584A.46.46,0,0,1-242.29,861.256Z" transform="translate(255.596 -826.2)" fill="#7654b5"/>
    <path id="Path_227" data-name="Path 227" d="M-57.082,795.354a10.309,10.309,0,0,1-2.927-.468,4.681,4.681,0,0,1-1.8-1.03c-1.011-.937-2.03-1.865-3.076-2.763a1.172,1.172,0,0,1-.117-.116c-.041-.047-.111-.091-.08-.162.041-.093.127-.049.194-.034.977.216,1.946.482,2.932.64A5.8,5.8,0,0,1-59.3,792.6a26.207,26.207,0,0,1,2.345,1.962,3.086,3.086,0,0,1,.436.532c.125.192.061.264-.149.259C-56.806,795.352-56.944,795.354-57.082,795.354Z" transform="translate(106.723 -775.641)" fill="#7654b5"/>
    <path id="Path_228" data-name="Path 228" d="M-94.243,1000.248c-.1-.014-.221.039-.282-.058s.037-.19.083-.273a10.52,10.52,0,0,1,2.8-3.152,2.176,2.176,0,0,1,.816-.384c1.39-.352,2.756-.783,4.109-1.254.061-.021.121-.044.182-.063s.113-.047.151.008-.006.107-.039.149c-.145.178-.288.358-.441.529-.664.737-1.335,1.469-2,2.208a3.015,3.015,0,0,1-.952.737,23.738,23.738,0,0,1-3.643,1.415A3.638,3.638,0,0,1-94.243,1000.248Z" transform="translate(131.266 -945.877)" fill="#7654b5"/>
    <path id="Path_229" data-name="Path 229" d="M1.291,857.778a2.022,2.022,0,0,1-.14.837c-.384,1.111-.761,2.226-1.141,3.339a2.229,2.229,0,0,1-.083.234c-.041.088-.044.247-.147.24-.128-.01-.108-.175-.127-.274-.139-.731-.26-1.465-.4-2.195-.106-.541-.234-1.077-.358-1.614a5.084,5.084,0,0,1,.07-2.614,13.605,13.605,0,0,1,1.118-2.722c.059-.109.114-.267.263-.25s.176.176.217.295a12.91,12.91,0,0,1,.537,2.613C1.185,856.367,1.228,857.073,1.291,857.778Z" transform="translate(53.514 -827.307)" fill="#7654b5"/>
    <path id="Path_230" data-name="Path 230" d="M-138.926,822.046c.089.081.056.189.056.284q0,2.619,0,5.237a1.044,1.044,0,0,1-.055.407,14.886,14.886,0,0,1-1.588,2.986c-.1.136-.177.356-.375.319s-.192-.273-.237-.433a7.174,7.174,0,0,1-.115-1.672c-.035-.825-.009-1.653-.011-2.48a1,1,0,0,1,.106-.478q1.034-1.994,2.065-3.989C-139.044,822.158-139.029,822.066-138.926,822.046Z" transform="translate(170.193 -801.715)" fill="#7654b5"/>
    <path id="Path_231" data-name="Path 231" d="M-101.483,822.008c.13.034.145.147.188.23.649,1.237,1.262,2.493,1.947,3.712a2.307,2.307,0,0,1,.2,1.047,19.133,19.133,0,0,1-.1,3.577,2.826,2.826,0,0,1-.093.43c-.082.271-.175.292-.374.08a3.228,3.228,0,0,1-.291-.367,14.819,14.819,0,0,1-1.46-2.747,1.022,1.022,0,0,1-.067-.4q0-2.648,0-5.3A.39.39,0,0,1-101.483,822.008Z" transform="translate(137.087 -801.683)" fill="#7654b5"/>
    <path id="Path_232" data-name="Path 232" d="M-97.856,932.657c-.431-.043-.82-.085-1.211-.12a27.666,27.666,0,0,0-2.972-.1,1.807,1.807,0,0,1-.918-.225,26.108,26.108,0,0,1-2.921-1.714,4.106,4.106,0,0,1-.816-.694c-.193-.234-.151-.358.149-.4a11.913,11.913,0,0,1,2.063-.017c.274.013.548.053.822.076a3.734,3.734,0,0,1,1.705.58q1.871,1.192,3.788,2.308A.571.571,0,0,1-97.856,932.657Z" transform="translate(141.487 -891.139)" fill="#7654b5"/>
    <path id="Path_233" data-name="Path 233" d="M-189.628,892.458a.45.45,0,0,1,.133-.324c.693-1.062,1.407-2.11,2.015-3.224a1.976,1.976,0,0,1,.552-.645,15.5,15.5,0,0,1,3.623-2.129c.18-.069.4-.235.564-.067s-.008.4-.092.582a12.808,12.808,0,0,1-1.225,2.152,5.12,5.12,0,0,1-1.783,1.532c-1.157.6-2.279,1.269-3.394,1.947A1.148,1.148,0,0,1-189.628,892.458Z" transform="translate(210.504 -855.006)" fill="#7654b5"/>
    <path id="Path_234" data-name="Path 234" d="M-74.848,893.567a.478.478,0,0,1-.273-.115c-1.192-.766-2.41-1.488-3.67-2.136a4.938,4.938,0,0,1-1.8-1.706,11.031,11.031,0,0,1-1.135-1.983c-.072-.174-.194-.389-.037-.541s.334.015.485.082a18.767,18.767,0,0,1,3.536,2.024,2.626,2.626,0,0,1,.75.836c.616,1.09,1.308,2.131,1.984,3.183A.613.613,0,0,1-74.848,893.567Z" transform="translate(120.678 -855.868)" fill="#7654b5"/>
    <path id="Path_235" data-name="Path 235" d="M-168.52,928.069a5.517,5.517,0,0,1,1.288.072c.1.023.253,0,.283.128.024.1-.1.163-.173.232A14.371,14.371,0,0,1-170,930.473a5.549,5.549,0,0,1-2.669.655c-1,.044-2,.089-2.993.209-.079.01-.192.041-.226-.044-.045-.115.085-.145.156-.185,1.3-.737,2.564-1.545,3.83-2.345a5.744,5.744,0,0,1,2.693-.69C-168.979,928.053-168.749,928.069-168.52,928.069Z" transform="translate(199.058 -890.063)" fill="#7654b5"/>
    <path id="Path_236" data-name="Path 236" d="M-79.626,811.671a.508.508,0,0,1,.346.169c1.17.953,2.388,1.84,3.619,2.711a.6.6,0,0,1,.241.258,18.738,18.738,0,0,1,1.12,3.283c.042.21.187.5.009.621s-.385-.132-.567-.24a10.773,10.773,0,0,1-2.737-2.415A4.159,4.159,0,0,1-78.237,815q-.658-1.548-1.313-3.1C-79.578,811.838-79.6,811.767-79.626,811.671Z" transform="translate(118.832 -793.069)" fill="#7654b5"/>
    <path id="Path_237" data-name="Path 237" d="M-181.052,818.852a2.94,2.94,0,0,1,.107-.651,12.622,12.622,0,0,1,.987-2.656,2.23,2.23,0,0,1,.719-.857c1.045-.72,2.038-1.51,3.049-2.277.124-.094.275-.309.4-.208.111.088-.05.3-.111.446-.377.908-.778,1.806-1.115,2.731a4.724,4.724,0,0,1-1,1.476,10.132,10.132,0,0,1-2.7,2.2C-181.032,819.232-181.059,819.216-181.052,818.852Z" transform="translate(203.356 -793.49)" fill="#7654b5"/>
    <path id="Path_238" data-name="Path 238" d="M-168.481,970.332a2.478,2.478,0,0,1-.951-.215c-1.2-.536-2.409-1.054-3.644-1.507a.947.947,0,0,1-.126-.055c-.047-.025-.114-.041-.114-.106,0-.09.089-.087.144-.1.4-.069.8-.138,1.2-.192q1.242-.167,2.487-.318a5.049,5.049,0,0,1,1.849.236A11.082,11.082,0,0,1-165,969.1c.127.07.347.106.322.289-.022.163-.228.194-.372.247a12.917,12.917,0,0,1-2.546.591C-167.9,970.273-168.214,970.3-168.481,970.332Z" transform="translate(196.908 -923.197)" fill="#7654b5"/>
    <path id="Path_239" data-name="Path 239" d="M-99,969.621c-.028.105-.111.109-.177.13-1.119.368-2.195.845-3.283,1.29a6.072,6.072,0,0,1-1.551.469,6.9,6.9,0,0,1-2.26-.256,6.451,6.451,0,0,1-1.365-.43c-.1-.044-.227-.078-.231-.209s.113-.162.2-.208A8.821,8.821,0,0,1-102.9,969.1c.725.043,1.435.207,2.156.295l1.613.2A1.19,1.19,0,0,1-99,969.621Z" transform="translate(142.37 -924.25)" fill="#7654b5"/>
    <path id="Path_240" data-name="Path 240" d="M-206.346,863.569a11.845,11.845,0,0,1-.732,3.563,5.425,5.425,0,0,1-.718,1.269c-.587.755-1.142,1.534-1.7,2.31a.883.883,0,0,1-.084.109c-.067.068-.117.211-.228.154s-.037-.182-.023-.279c.181-1.255.351-2.511.419-3.778a2.961,2.961,0,0,1,.533-1.513,12.315,12.315,0,0,1,1.9-2.178c.135-.125.286-.329.491-.225S-206.37,863.362-206.346,863.569Z" transform="translate(227.365 -835.821)" fill="#7654b5"/>
    <path id="Path_241" data-name="Path 241" d="M-40.606,864.459a4.166,4.166,0,0,1,0-.522c.031-.247.129-.279.322-.119a11.11,11.11,0,0,1,1.046,1.056c.386.419.75.855,1.1,1.307a2.7,2.7,0,0,1,.515,1.459q.173,1.919.428,3.829c.01.078.05.183-.043.223s-.141-.066-.189-.125a26.654,26.654,0,0,1-2.187-3,7.946,7.946,0,0,1-.953-3.251A3.663,3.663,0,0,1-40.606,864.459Z" transform="translate(86.325 -836.442)" fill="#7654b5"/>
    <path id="Path_242" data-name="Path 242" d="M-109.2,906.69c-.579,0-1.158-.006-1.737,0-.21,0-.292-.07-.294-.287a34.413,34.413,0,0,1,.127-3.552c.008-.081,0-.188.085-.217s.121.069.162.126a28.229,28.229,0,0,0,3.435,3.648c.069.066.2.121.158.231-.036.088-.166.046-.254.046C-108.08,906.691-108.641,906.69-109.2,906.69Z" transform="translate(145.173 -868.871)" fill="#7654b5"/>
    <path id="Path_243" data-name="Path 243" d="M-138.048,902.89c0,.634,0,1.269,0,1.9,0,.2-.066.272-.283.232a13.707,13.707,0,0,0-3.187-.075c-.132.006-.321.1-.385-.017-.076-.143.108-.252.205-.351.848-.868,1.747-1.685,2.556-2.592.313-.351.591-.727.876-1.1.038-.05.072-.13.141-.115.092.02.074.116.074.185C-138.047,901.6-138.048,902.246-138.048,902.89Z" transform="translate(170.745 -867.32)" fill="#7654b5"/>
    <path id="Path_244" data-name="Path 244" d="M-136.145,860.974a6.526,6.526,0,0,1,.218,1.073,24.447,24.447,0,0,0,1.158,4.077c.048.133.177.317.074.408-.131.115-.281-.063-.407-.135-.983-.558-1.961-1.125-2.942-1.687-.163-.093-.27-.171-.115-.375a14.613,14.613,0,0,0,1.9-3.189A1.5,1.5,0,0,1-136.145,860.974Z" transform="translate(167.674 -834.155)" fill="#7654b5"/>
    <path id="Path_245" data-name="Path 245" d="M-100.879,890.026c-.131.054-.226-.023-.324-.057a29.78,29.78,0,0,0-3.759-1.155c-.332-.07-.666-.13-1-.2-.068-.014-.158-.023-.168-.113-.009-.074.065-.106.118-.139,1.006-.624,2.041-1.2,3.092-1.745.125-.065.232-.067.285.088a13.618,13.618,0,0,0,1.722,3.218A.392.392,0,0,1-100.879,890.026Z" transform="translate(140.919 -855.491)" fill="#7654b5"/>
    <path id="Path_246" data-name="Path 246" d="M-149.473,887.073c0,.14-.1.172-.185.193-.231.057-.466.1-.7.15a29.768,29.768,0,0,0-3.775,1.106c-.069.025-.136.056-.207.075s-.131.054-.178-.011,0-.125.033-.178q.136-.207.278-.41a9.282,9.282,0,0,0,1.312-2.594c.072-.235.152-.292.381-.159.9.526,1.82,1.035,2.729,1.553A.671.671,0,0,1-149.473,887.073Z" transform="translate(181.258 -854.321)" fill="#7654b5"/>
    <path id="Path_247" data-name="Path 247" d="M-104.221,1005.039a.191.191,0,0,1-.09.174,12.121,12.121,0,0,0-2.512,2.944c-.305.465-.309.459-.617.006a11.6,11.6,0,0,1-1.266-2.286c-.165-.421-.108-.483.337-.536.741-.088,1.487-.028,2.23-.088a13.686,13.686,0,0,0,1.7-.186C-104.375,1005.054-104.3,1005.049-104.221,1005.039Z" transform="translate(143.137 -954.211)" fill="#7654b5"/>
    <path id="Path_248" data-name="Path 248" d="M-107.721,865.56c.016.137-.064.177-.134.217q-1.482.847-2.968,1.689c-.068.039-.152.1-.226.026s-.009-.141.015-.206a28.825,28.825,0,0,0,1.236-4.536c.026-.134.01-.356.168-.367s.179.208.234.337a17.874,17.874,0,0,0,1.493,2.536C-107.834,865.363-107.772,865.475-107.721,865.56Z" transform="translate(145.043 -835.328)" fill="#7654b5"/>
    <path id="Path_249" data-name="Path 249" d="M-146.6,1004.329c1.267.135,2.5.146,3.728.216.027,0,.055.007.082.011.437.069.488.137.309.533a10.5,10.5,0,0,1-1.455,2.46c-.133.159-.221.2-.337-.012a13.013,13.013,0,0,0-2.2-2.781,2.337,2.337,0,0,1-.194-.232c-.033-.043-.067-.095-.038-.152A.093.093,0,0,1-146.6,1004.329Z" transform="translate(174.741 -953.618)" fill="#7654b5"/>
    <path id="Path_250" data-name="Path 250" d="M-212.854,817.634c.154-.008.168.069.108.171a3.508,3.508,0,0,1-.247.365,21.827,21.827,0,0,0-1.953,2.968c-.156.285-.185.288-.4.038a12.336,12.336,0,0,1-1.593-2.634c-.081-.165-.034-.259.16-.275.5-.041,1.006-.087,1.509-.133a10.446,10.446,0,0,0,2.13-.429C-213.044,817.674-212.944,817.656-212.854,817.634Z" transform="translate(233.293 -798.038)" fill="#7654b5"/>
    <path id="Path_251" data-name="Path 251" d="M-12.783,848.241c.312.015.624.035.936.044.24.007.25.11.15.294-.289.533-.578,1.066-.821,1.623a12.514,12.514,0,0,0-.613,1.827,2.318,2.318,0,0,1-.072.237c-.022.058-.034.137-.11.144-.093.008-.11-.081-.142-.144a1.185,1.185,0,0,1-.063-.153,16.66,16.66,0,0,0-1.6-3.379c-.156-.251-.139-.284.144-.325A15.654,15.654,0,0,1-12.783,848.241Z" transform="translate(65.161 -823.544)" fill="#7654b5"/>
    <path id="Path_252" data-name="Path 252" d="M-37.18,817.347c.1.028.216.053.327.094a10.43,10.43,0,0,0,3.025.531c.183.012.364.041.547.055.229.018.293.126.187.328-.132.252-.261.506-.406.751a13.871,13.871,0,0,1-1.154,1.711c-.2.251-.289.253-.444-.024a25.574,25.574,0,0,0-2.18-3.211c-.043-.055-.106-.115-.067-.2C-37.315,817.325-37.252,817.341-37.18,817.347Z" transform="translate(83.607 -797.793)" fill="#7654b5"/>
    <path id="Path_253" data-name="Path 253" d="M-235.03,847.257c-.012-.2.091-.247.219-.273a5.557,5.557,0,0,1,1.264-.044,9.766,9.766,0,0,1,1.642.156c.293.058.334.134.18.393a22.156,22.156,0,0,0-1.62,3.4c-.028.073-.05.182-.149.175s-.114-.113-.138-.189c-.149-.472-.259-.956-.438-1.42-.228-.592-.5-1.164-.782-1.731A1.522,1.522,0,0,1-235.03,847.257Z" transform="translate(248.338 -822.448)" fill="#7654b5"/>
    <path id="Path_254" data-name="Path 254" d="M-162.526,1019.228c.126-.035.225.05.33.094a23.142,23.142,0,0,0,3.312,1.127c.257.065.524.094.786.137.106.018.256-.012.293.1s-.094.189-.169.265a7.965,7.965,0,0,1-1.34,1.012,7.934,7.934,0,0,1-1.052.6c-.212.1-.383.062-.471-.167a15.4,15.4,0,0,0-1.655-3.016C-162.521,1019.341-162.558,1019.3-162.526,1019.228Z" transform="translate(187.927 -966.028)" fill="#7654b5"/>
    <path id="Path_255" data-name="Path 255" d="M-92.621,1024.092c-.062-.026-.14-.054-.214-.09a10.737,10.737,0,0,1-2.344-1.588c-.059-.053-.159-.1-.129-.192s.132-.089.21-.107a26.1,26.1,0,0,0,4.112-1.331,1.419,1.419,0,0,1,.183-.059c.1-.026.141.011.1.114a.325.325,0,0,1-.038.073,27.9,27.9,0,0,0-1.608,2.919C-92.4,1023.939-92.444,1024.077-92.621,1024.092Z" transform="translate(131.906 -967.276)" fill="#7654b5"/>
    <path id="Path_256" data-name="Path 256" d="M-209.353,853.986c-.017-.363-.038-.727-.051-1.091a12.841,12.841,0,0,0-.443-3.1c-.065-.227.014-.29.273-.2a17.129,17.129,0,0,1,2.022.939c.244.127.477.276.72.406.189.1.2.2.045.353-.628.632-1.262,1.259-1.851,1.929-.223.254-.433.518-.649.778Z" transform="translate(227.369 -824.642)" fill="#7654b5"/>
    <path id="Path_257" data-name="Path 257" d="M-216.053,796.442a.3.3,0,0,1-.153.171,23.375,23.375,0,0,0-2.945,2.53,4.187,4.187,0,0,1-.328.294c-.1.083-.207.219-.358.15-.131-.059-.128-.213-.14-.339-.035-.356-.079-.712-.092-1.07-.018-.459-.02-.919-.009-1.378.009-.39.119-.49.512-.467.357.021.713.067,1.068.109a9.343,9.343,0,0,0,2.253-.039A.2.2,0,0,1-216.053,796.442Z" transform="translate(235.883 -780.285)" fill="#7654b5"/>
    <path id="Path_258" data-name="Path 258" d="M11.277,850.588c-.016-.252.067-.311.232-.266a.7.7,0,0,1,.1.036,10.062,10.062,0,0,1,2.411,1.42c.156.13.191.233.053.406a18.129,18.129,0,0,0-1.726,2.682c-.046.084-.079.228-.191.2s-.089-.165-.1-.262a23.738,23.738,0,0,0-.7-3.838C11.314,850.822,11.293,850.667,11.277,850.588Z" transform="translate(43.081 -825.267)" fill="#7654b5"/>
    <path id="Path_259" data-name="Path 259" d="M-255.533,849c.145-.02.2.035.187.153a.7.7,0,0,1-.031.162,21.957,21.957,0,0,0-.849,4.092.988.988,0,0,1-.021.136c-.017.059-.016.142-.092.153s-.105-.064-.137-.118c-.231-.386-.447-.782-.694-1.158-.343-.522-.709-1.029-1.067-1.54-.084-.121-.156-.223.007-.347a10.619,10.619,0,0,1,2.537-1.483C-255.633,849.028-255.57,849.013-255.533,849Z" transform="translate(267.753 -824.175)" fill="#7654b5"/>
    <path id="Path_260" data-name="Path 260" d="M-35.763,851.522a15.121,15.121,0,0,0-.282,1.681c-.069.667-.141,1.333-.213,2-.009.081.01.186-.073.224-.1.047-.14-.064-.184-.124a19.2,19.2,0,0,0-2.14-2.337c-.291-.286-.286-.336.067-.54a16.188,16.188,0,0,1,2.491-1.177C-35.81,851.145-35.746,851.2-35.763,851.522Z" transform="translate(84.863 -826.011)" fill="#7654b5"/>
    <path id="Path_261" data-name="Path 261" d="M-46.3,835a.313.313,0,0,1-.136.18,21.267,21.267,0,0,1-2.535,1.7c-.2.116-.306.056-.337-.165a14.839,14.839,0,0,0-.9-3.112c-.028-.074-.1-.159-.021-.229s.158-.023.233.009c.22.093.441.183.655.287a16.649,16.649,0,0,0,2.766,1.149C-46.47,834.853-46.339,834.87-46.3,835Z" transform="translate(94.365 -811.131)" fill="#7654b5"/>
    <path id="Path_262" data-name="Path 262" d="M-27.547,798.061a9.073,9.073,0,0,1-.056,1.326c-.023.135-.012.3-.163.354s-.258-.074-.354-.167c-.507-.493-.984-1.017-1.528-1.472-.493-.412-.993-.817-1.487-1.229-.08-.067-.232-.125-.189-.242.049-.133.211-.086.322-.076.394.036.788.048,1.183.049.562,0,1.115-.1,1.673-.136.417-.027.486.026.553.443A9.584,9.584,0,0,1-27.547,798.061Z" transform="translate(78.586 -780.394)" fill="#7654b5"/>
    <path id="Path_263" data-name="Path 263" d="M-198.1,832.717c.118.01.094.084.075.143-.056.175-.118.348-.179.521A20.184,20.184,0,0,0-199,835.99c-.074.351-.136.376-.44.185-.826-.518-1.646-1.044-2.467-1.569-.057-.037-.147-.062-.132-.155.01-.061.078-.072.129-.089a22.663,22.663,0,0,0,3.69-1.6C-198.179,832.745-198.135,832.731-198.1,832.717Z" transform="translate(220.846 -810.607)" fill="#7654b5"/>
    <path id="Path_264" data-name="Path 264" d="M-156.481,857.128c0,.234-.137.161-.239.106q-.6-.331-1.2-.675c-.445-.257-.884-.523-1.33-.779-.166-.1-.214-.18-.046-.324a16.581,16.581,0,0,0,2.239-2.495c.054-.069.1-.191.2-.168s.068.154.079.238c.1.767.026,1.539.085,2.309A11.607,11.607,0,0,0-156.481,857.128Z" transform="translate(185.311 -827.334)" fill="#7654b5"/>
    <path id="Path_265" data-name="Path 265" d="M-111.224,932.791c0-.441,0-.882,0-1.324,0-.068-.031-.161.056-.194.067-.025.117.042.162.085a17.824,17.824,0,0,0,3.452,2.408c.076.045.212.076.2.169-.022.123-.165.083-.259.091a19.812,19.812,0,0,0-3.086.567c-.433.108-.461.1-.488-.342-.03-.485-.007-.973-.007-1.46Z" transform="translate(145.167 -892.734)" fill="#7654b5"/>
    <path id="Path_266" data-name="Path 266" d="M-137.678,980.375c-.047.9-.1,1.848-.148,2.8,0,.071.02.161-.055.2s-.137-.032-.189-.079a19.231,19.231,0,0,0-3.213-2.268c-.053-.031-.137-.052-.128-.126s.094-.076.156-.087a18.315,18.315,0,0,0,3.311-.813C-137.716,979.92-137.669,979.988-137.678,980.375Z" transform="translate(170.322 -933.322)" fill="#7654b5"/>
    <path id="Path_267" data-name="Path 267" d="M-137.136,932.083c0,.477.012.955,0,1.431-.012.355-.074.383-.4.272a11.135,11.135,0,0,0-2.666-.53c-.137-.011-.274-.03-.41-.05-.064-.009-.133-.03-.15-.1s.042-.119.094-.156c.195-.137.387-.28.591-.4a16.765,16.765,0,0,0,2.752-1.967c.049-.046.1-.128.185-.075s.055.132.055.2c0,.459,0,.918,0,1.378Z" transform="translate(169.787 -892.081)" fill="#7654b5"/>
    <path id="Path_268" data-name="Path 268" d="M-110.482,982.583c0-.257-.012-.515,0-.772.017-.31.107-.367.407-.278a23.749,23.749,0,0,0,2.483.628c.18.033.364.043.546.07.061.009.135.015.16.089s-.035.14-.093.182a4.947,4.947,0,0,1-.41.279,19.423,19.423,0,0,0-2.622,1.872c-.075.063-.152.178-.251.143-.115-.041-.094-.187-.106-.29A14.6,14.6,0,0,1-110.482,982.583Z" transform="translate(144.55 -934.591)" fill="#7654b5"/>
    <path id="Path_269" data-name="Path 269" d="M-167.949,874.763c-.032.136-.15.158-.248.2a20.089,20.089,0,0,0-2.377,1.153c-.318.184-.627.383-.943.569-.081.048-.175.161-.265.081s0-.191.031-.282c.245-.721.531-1.428.738-2.162.089-.318.17-.638.239-.961.038-.181.1-.24.276-.139.772.443,1.549.879,2.322,1.32A.413.413,0,0,1-167.949,874.763Z" transform="translate(195.661 -844.32)" fill="#7654b5"/>
    <path id="Path_270" data-name="Path 270" d="M-78.439,874.8c.152-.024.173.081.2.164.073.256.137.514.206.771a19.69,19.69,0,0,0,.66,1.984c.056.145.1.294.151.442.019.058.057.13-.012.176s-.124,0-.18-.032c-.072-.04-.143-.083-.212-.129a13.994,13.994,0,0,0-3.095-1.608.923.923,0,0,1-.127-.052c-.086-.047-.218-.06-.23-.173s.117-.153.2-.2q1.117-.682,2.285-1.272C-78.54,874.838-78.48,874.815-78.439,874.8Z" transform="translate(120.044 -845.672)" fill="#7654b5"/>
    <path id="Path_271" data-name="Path 271" d="M-86.5,857.262a11.353,11.353,0,0,0,.261-2.146c.034-.6.061-1.209.095-1.814,0-.087-.03-.21.077-.241.087-.025.131.084.178.148a16.155,16.155,0,0,0,2.078,2.384c.158.143.149.249-.038.357-.8.464-1.6.935-2.4,1.4-.067.039-.14.1-.227.048C-86.523,857.369-86.506,857.316-86.5,857.262Z" transform="translate(124.567 -827.558)" fill="#7654b5"/>
    <path id="Path_272" data-name="Path 272" d="M-176.089,842.347c.07.09.027.18,0,.263a23.016,23.016,0,0,0-.593,3.389c-.007.064-.027.126-.033.19-.017.18-.095.225-.252.128-.688-.425-1.387-.832-2.054-1.292-.19-.131-.162-.237.01-.352.145-.1.284-.2.431-.3a11.148,11.148,0,0,0,2.208-1.818C-176.289,842.475-176.223,842.366-176.089,842.347Z" transform="translate(201.768 -818.632)" fill="#7654b5"/>
    <path id="Path_273" data-name="Path 273" d="M-55.95,866.934a.591.591,0,0,1-.371-.218,22.7,22.7,0,0,0-2.648-2.16c-.289-.2-.285-.226.018-.4.666-.372,1.332-.745,2-1.111.314-.171.383-.138.383.228a12.873,12.873,0,0,0,.288,2.57A5.937,5.937,0,0,0-55.95,866.934Z" transform="translate(101.796 -835.802)" fill="#7654b5"/>
    <path id="Path_274" data-name="Path 274" d="M-107.327,959.557a1.881,1.881,0,0,1-.2.066,13.934,13.934,0,0,0-3.148,1.142c-.329.158-.371.136-.409-.224a15.321,15.321,0,0,1-.126-2.167c.013-.366.067-.407.382-.251a22.819,22.819,0,0,0,3.2,1.256c.087.028.171.063.256.1C-107.358,959.482-107.354,959.507-107.327,959.557Z" transform="translate(145.155 -915.041)" fill="#7654b5"/>
    <path id="Path_275" data-name="Path 275" d="M-189.156,865.459c-.058-.1,0-.2.024-.291a11.944,11.944,0,0,0,.428-3.322c0-.36.035-.377.355-.2.638.346,1.283.681,1.9,1.071.368.234.37.324.02.564a28.329,28.329,0,0,0-2.472,2.025C-188.979,865.366-189.036,865.461-189.156,865.459Z" transform="translate(210.13 -834.622)" fill="#7654b5"/>
    <path id="Path_276" data-name="Path 276" d="M-142.387,958.583c.03-.091.1-.095.16-.11a22.076,22.076,0,0,0,3.374-1.274c.339-.157.367-.128.382.24a20.083,20.083,0,0,1-.007,2.149c-.027.4-.093.445-.438.234a9.49,9.49,0,0,0-3.065-1.117A.8.8,0,0,1-142.387,958.583Z" transform="translate(171.134 -914.268)" fill="#7654b5"/>
    <path id="Path_277" data-name="Path 277" d="M-67.565,842.926a.883.883,0,0,1,.152.1,14.4,14.4,0,0,0,2.807,2.21c.161.1.149.187-.01.276-.7.391-1.394.781-2.088,1.177-.214.122-.3.039-.331-.174-.08-.573-.157-1.145-.241-1.717s-.21-1.118-.346-1.671C-67.638,843.066-67.706,842.971-67.565,842.926Z" transform="translate(108.854 -819.115)" fill="#7654b5"/>
    <path id="Path_278" data-name="Path 278" d="M-268.453,888.3c-.121-.026-.148-.135-.194-.217a23.713,23.713,0,0,0-1.628-2.521,3.658,3.658,0,0,1-.532-2.367c0-.234.154-.235.3-.122a3.444,3.444,0,0,1,1.309,1.792c.276,1.046.5,2.108.736,3.163A.393.393,0,0,1-268.453,888.3Z" transform="translate(278.153 -852.513)" fill="#7654b5"/>
    <path id="Path_279" data-name="Path 279" d="M27.281,889.47a.389.389,0,0,1,.007-.3c.226-.994.46-1.986.677-2.982a3.167,3.167,0,0,1,1.313-1.775c.179-.143.314-.073.3.151a4.467,4.467,0,0,1-.443,2.107c-.552.913-1.155,1.791-1.741,2.682A1.148,1.148,0,0,1,27.281,889.47Z" transform="translate(29.766 -853.624)" fill="#7654b5"/>
    <path id="Path_280" data-name="Path 280" d="M-57.524,768.665a.838.838,0,0,1,.486-.111,25.41,25.41,0,0,0,2.723-.124,3.239,3.239,0,0,1,2.181.7c.217.141.195.281-.067.391a3.276,3.276,0,0,1-2.023.182c-.72-.161-1.391-.47-2.1-.673C-56.724,768.91-57.123,768.786-57.524,768.665Z" transform="translate(100.414 -757.02)" fill="#7654b5"/>
    <path id="Path_281" data-name="Path 281" d="M-48.116,1013.668c.037.078-.014.128-.045.179-.481.782-.916,1.592-1.329,2.411a4,4,0,0,1-1.782,1.661c-.22.121-.313.067-.294-.187a2.834,2.834,0,0,1,.827-1.874c.738-.714,1.52-1.384,2.322-2.029C-48.33,1013.759-48.25,1013.659-48.116,1013.668Z" transform="translate(95.451 -961.401)" fill="#7654b5"/>
    <path id="Path_282" data-name="Path 282" d="M-198.548,768.663c-.523.161-1.044.331-1.57.482a13.692,13.692,0,0,1-2.054.61,3,3,0,0,1-1.59-.207c-.122-.053-.292-.094-.3-.25s.151-.194.256-.261a3.352,3.352,0,0,1,2.452-.577,13.052,13.052,0,0,0,2.115.1c.227,0,.454.023.68.035Z" transform="translate(222.531 -757.02)" fill="#7654b5"/>
    <path id="Path_283" data-name="Path 283" d="M-198.861,1012.191a.639.639,0,0,1,.331.209c.72.615,1.453,1.215,2.149,1.856a2.653,2.653,0,0,1,.893,2c0,.319-.064.333-.333.18a4.432,4.432,0,0,1-1.92-2.094,16.671,16.671,0,0,0-1.05-1.907C-198.831,1012.372-198.9,1012.309-198.861,1012.191Z" transform="translate(218.205 -960.171)" fill="#7654b5"/>
    <path id="Path_284" data-name="Path 284" d="M-214.995,774.941a.764.764,0,0,1-.112.122,3.433,3.433,0,0,1-.346.225,26.8,26.8,0,0,0-2.508,1.55c-.107.075-.242.221-.363.125s0-.259.051-.377a9.65,9.65,0,0,1,1.315-2.256c.22-.279.249-.27.546-.071a5.039,5.039,0,0,0,1.211.522C-215.119,774.81-215.019,774.821-214.995,774.941Z" transform="translate(234.461 -761.772)" fill="#7654b5"/>
    <path id="Path_285" data-name="Path 285" d="M-175.672,1032.251a7.121,7.121,0,0,1-1.21-.06c-.239-.034-.386-.116-.353-.408a3.487,3.487,0,0,0-.185-1.329c-.021-.077-.075-.168,0-.232s.162,0,.231.033c.655.353,1.305.716,1.963,1.064.341.18.7.333,1.042.5.078.039.191.074.178.185s-.128.117-.215.137A6.064,6.064,0,0,1-175.672,1032.251Z" transform="translate(200.36 -975.174)" fill="#7654b5"/>
    <path id="Path_286" data-name="Path 286" d="M-71.356,1032.774c-.432,0-.863,0-1.295,0-.116,0-.286.023-.321-.1-.043-.148.132-.2.237-.261.377-.209.761-.407,1.144-.6a18.16,18.16,0,0,0,1.88-1.038c.056-.038.12-.114.193-.058.057.044.018.12,0,.181a5.681,5.681,0,0,0-.19,1.525c0,.255-.09.366-.355.357-.431-.014-.863,0-1.295,0Z" transform="translate(113.292 -975.592)" fill="#7654b5"/>
    <path id="Path_287" data-name="Path 287" d="M34.141,867.925a.268.268,0,0,1-.124.261,12.464,12.464,0,0,0-1.125.93c-.053.046-.1.127-.184.091s-.065-.126-.065-.2q0-1.626,0-3.252c0-.072-.011-.164.068-.2s.111.049.149.1a10.391,10.391,0,0,1,1.247,2.135A.631.631,0,0,1,34.141,867.925Z" transform="translate(25.275 -837.974)" fill="#7654b5"/>
    <path id="Path_288" data-name="Path 288" d="M-270.24,864.663q-.051,1.4-.1,2.807c0,.071.017.163-.058.2-.1.049-.147-.051-.2-.107a3.13,3.13,0,0,0-1.154-.873c-.125-.051-.168-.13-.1-.259a12.107,12.107,0,0,1,1.363-2.291c.055-.065.1-.186.207-.143.086.035.047.147.049.226,0,.147,0,.294,0,.441Z" transform="translate(279.05 -836.666)" fill="#7654b5"/>
    <path id="Path_289" data-name="Path 289" d="M-28.749,774.69a.315.315,0,0,1,.228.152,13.135,13.135,0,0,1,1.238,2.238c.026.057.062.127.01.18s-.121.007-.175-.023c-.1-.052-.194-.105-.285-.166-.689-.458-1.4-.872-2.129-1.269a3.691,3.691,0,0,1-.437-.286c-.1-.078-.115-.175.029-.223a5.706,5.706,0,0,0,1.449-.587A.19.19,0,0,1-28.749,774.69Z" transform="translate(77.792 -762.251)" fill="#7654b5"/>
    <path id="Path_290" data-name="Path 290" d="M-186.143,1036.733c-.312-.091-.673-.13-.878-.462-.063-.1-.126-.245-.044-.332s.2.031.28.086c.252.165.5.34.742.516.048.035.114.085.072.158C-186,1036.753-186.069,1036.73-186.143,1036.733Z" transform="translate(208.399 -979.93)" fill="#7654b5"/>
    <path id="Path_291" data-name="Path 291" d="M-206.013,767.611a2.7,2.7,0,0,1,.8-.769.418.418,0,0,1,.186-.039c.11,0,.25,0,.281.121s-.11.152-.194.2A5.248,5.248,0,0,1-206.013,767.611Z" transform="translate(224.156 -755.678)" fill="#7654b5"/>
    <path id="Path_292" data-name="Path 292" d="M-29.776,766.779a1.328,1.328,0,0,1,.781.568c.033.088,0,.136-.084.108a4.145,4.145,0,0,1-.937-.442.09.09,0,0,1-.038-.12C-29.99,766.783-29.874,766.787-29.776,766.779Z" transform="translate(77.532 -755.658)" fill="#7654b5"/>
    <path id="Path_293" data-name="Path 293" d="M-48.788,1038.356c-.015-.005-.074-.008-.093-.037-.036-.055.011-.1.053-.138a3.686,3.686,0,0,1,.727-.482c.066-.033.148-.056.2.013s.02.139-.012.207A1.218,1.218,0,0,1-48.788,1038.356Z" transform="translate(93.222 -981.4)" fill="#7654b5"/>
    <path id="Path_294" data-name="Path 294" d="M-274.166,885.695c-.019.1.039.227-.064.262s-.151-.082-.2-.15a.835.835,0,0,1,.015-.9c.021-.025.056-.056.084-.055.055,0,.064.06.07.1C-274.23,885.209-274.2,885.462-274.166,885.695Z" transform="translate(281.278 -854.057)" fill="#7654b5"/>
    <path id="Path_295" data-name="Path 295" d="M42.971,886.658a.582.582,0,0,1-.169.424c-.049.049-.1.123-.182.086-.068-.03-.07-.105-.065-.167a3,3,0,0,1,.142-.776c.015-.042.029-.093.082-.1.073-.008.088.06.1.107C42.914,886.374,42.941,886.516,42.971,886.658Z" transform="translate(17.015 -855.115)" fill="#7654b5"/>
  </g>
</svg>
