<svg id="Group_374" data-name="Group 374" xmlns="http://www.w3.org/2000/svg" width="66.259" height="66.247" viewBox="0 0 66.259 66.247">
  <path id="Path_316" data-name="Path 316" d="M639.114,700.049h2.6a2.424,2.424,0,0,0,.291.045,30.046,30.046,0,0,1,5.83.792,33.189,33.189,0,0,1,25.645,30.546,30.877,30.877,0,0,1-.518,7.862,32.66,32.66,0,0,1-14.041,21.334,32.175,32.175,0,0,1-19.393,5.657,29.948,29.948,0,0,1-4.9-.478A32.8,32.8,0,0,1,611.97,750.2a31.763,31.763,0,0,1-4.434-12.723c-.116-.895-.165-1.794-.261-2.69v-3.266c.016-.109.041-.218.047-.329a29.828,29.828,0,0,1,1.206-7.108,32.85,32.85,0,0,1,18.495-21.219,30.731,30.731,0,0,1,9.843-2.62C637.614,700.166,638.364,700.112,639.114,700.049Zm1.28,6.473a26.664,26.664,0,1,0,26.669,26.7A26.685,26.685,0,0,0,640.394,706.522Z" transform="translate(-607.275 -700.049)" fill="#3f6fba"/>
  <g id="qqFuZX.tif" transform="translate(10.266 10.284)">
    <g id="Group_371" data-name="Group 371" transform="translate(0)">
      <path id="Path_318" data-name="Path 318" d="M847.474,881.237a4.047,4.047,0,0,1-.307,1.292,3.574,3.574,0,0,1-4.047,2.029c-3.709-.749-7.422-1.479-11.133-2.217-1.156-.23-2.311-.462-3.467-.689-.16-.031-.224-.09-.194-.267a1.415,1.415,0,0,0,.008-.541c-.051-.217.032-.279.216-.314q1.276-.246,2.549-.5,3.675-.73,7.349-1.462c1.7-.336,3.392-.7,5.1-.987a3.214,3.214,0,0,1,2.666.813,3.419,3.419,0,0,1,1.2,2.107c.026.162.04.326.059.489Z" transform="translate(-801.746 -858.243)" fill="#3f6fba"/>
      <path id="Path_319" data-name="Path 319" d="M788.1,940.279a3.734,3.734,0,0,1-1.83-.693,3.557,3.557,0,0,1-1.351-3.779q1.048-5.213,2.077-10.43.4-2,.794-4c.04-.2.113-.31.347-.243a1.009,1.009,0,0,0,.515-.009c.147-.035.228.011.26.173q.643,3.277,1.295,6.553c.451,2.264.912,4.525,1.354,6.791a10.583,10.583,0,0,1,.335,2.2,3.544,3.544,0,0,1-2.837,3.367c-.3.057-.611,0-.909.077Z" transform="translate(-765.499 -894.555)" fill="#3f6fba"/>
      <path id="Path_320" data-name="Path 320" d="M834.838,799.132a3.6,3.6,0,0,1-1.678,3.1q-4.732,3.156-9.462,6.315c-.962.642-1.926,1.281-2.88,1.933a.232.232,0,0,1-.37-.044,3.026,3.026,0,0,0-.386-.385c-.147-.118-.15-.208-.044-.366q1.483-2.2,2.95-4.406,2.628-3.937,5.254-7.876a3.619,3.619,0,0,1,2.508-1.688,3.538,3.538,0,0,1,4.02,2.75C834.8,798.71,834.815,798.958,834.838,799.132Z" transform="translate(-794.766 -790.02)" fill="#3f6fba"/>
      <path id="Path_321" data-name="Path 321" d="M706.089,927.655a3.488,3.488,0,0,1-3.252-3.818,3.431,3.431,0,0,1,1.579-2.68q4.429-2.963,8.865-5.917,1.762-1.177,3.515-2.366c.179-.122.3-.161.439.046a1.623,1.623,0,0,0,.366.368c.164.123.132.224.034.37q-4.158,6.209-8.313,12.42A3.565,3.565,0,0,1,706.089,927.655Z" transform="translate(-697.166 -887.607)" fill="#3f6fba"/>
      <path id="Path_322" data-name="Path 322" d="M840.253,914.728a3.35,3.35,0,0,1-1.958-.588q-5.245-3.5-10.492-7c-.653-.435-1.3-.878-1.957-1.308-.156-.1-.2-.2-.091-.359a1.8,1.8,0,0,0,.156-.337c.146-.383.145-.385.549-.3L835.8,906.7c1.763.352,3.532.678,5.289,1.057a3.473,3.473,0,0,1,2.689,2.962,3.547,3.547,0,0,1-3.126,4.01A3.342,3.342,0,0,1,840.253,914.728Z" transform="translate(-799.56 -880.952)" fill="#3f6fba"/>
      <path id="Path_323" data-name="Path 323" d="M681.291,833.223a3.67,3.67,0,0,1,2,.629q5.678,3.791,11.354,7.585c.364.243.722.495,1.089.734.119.078.151.145.078.278a2,2,0,0,0-.211.5c-.056.241-.189.262-.4.221q-3.4-.685-6.793-1.361c-2.6-.519-5.206-1.043-7.812-1.55a3.545,3.545,0,0,1,.22-7A3.359,3.359,0,0,1,681.291,833.223Z" transform="translate(-676.258 -821.313)" fill="#3f6fba"/>
      <path id="Path_324" data-name="Path 324" d="M821.83,774.143a3.315,3.315,0,0,1-.621,2.047l-6.36,9.518c-.624.934-1.253,1.864-1.87,2.8-.117.178-.214.266-.426.127a1.727,1.727,0,0,0-.48-.2c-.164-.046-.2-.127-.172-.289q.48-2.377.95-4.755c.555-2.789,1.1-5.58,1.666-8.368a11.666,11.666,0,0,1,.487-2.143,3.407,3.407,0,0,1,3.087-2.268,3.52,3.52,0,0,1,3.737,3.056A3.386,3.386,0,0,1,821.83,774.143Z" transform="translate(-788.055 -769.131)" fill="#3f6fba"/>
      <path id="Path_325" data-name="Path 325" d="M706.417,795.682a3.464,3.464,0,0,1,2.946,1.592q2.423,3.6,4.823,7.21,1.735,2.6,3.471,5.194c.111.165.143.274-.054.4a1.111,1.111,0,0,0-.333.329c-.132.207-.242.191-.432.064q-4.395-2.948-8.8-5.882l-3.523-2.356a3.457,3.457,0,0,1-1.647-3.238,3.5,3.5,0,0,1,2.93-3.261A3.209,3.209,0,0,1,706.417,795.682Z" transform="translate(-697.197 -790.028)" fill="#3f6fba"/>
      <path id="Path_326" data-name="Path 326" d="M672.471,884.709a3.541,3.541,0,0,1-.57-7.045,5.707,5.707,0,0,1,1.983.183q4.307.851,8.611,1.713,2.643.526,5.288,1.046c.172.034.258.1.239.293a4.417,4.417,0,0,0,0,.619c.006.137-.052.186-.18.211q-5.4,1.066-10.8,2.139-2.039.4-4.077.811A3.505,3.505,0,0,1,672.471,884.709Z" transform="translate(-668.872 -858.32)" fill="#3f6fba"/>
      <path id="Path_327" data-name="Path 327" d="M744,936.661a3.565,3.565,0,0,1-3.519-3.107,3.5,3.5,0,0,1,.587-2.446q3.412-5.114,6.823-10.228c.491-.735.99-1.465,1.476-2.2.1-.148.177-.181.336-.091a1.827,1.827,0,0,0,.5.207c.215.047.224.164.189.338q-.365,1.807-.722,3.615-.9,4.538-1.806,9.075a23.3,23.3,0,0,1-.5,2.372A3.543,3.543,0,0,1,744,936.661Z" transform="translate(-728.527 -892.41)" fill="#3f6fba"/>
      <path id="Path_328" data-name="Path 328" d="M743.929,770.5a3.63,3.63,0,0,1,3.526,3.1c.5,2.707,1.067,5.4,1.605,8.1q.628,3.153,1.259,6.305c.042.206.019.327-.212.367a1.446,1.446,0,0,0-.346.131c-.347.16-.346.162-.552-.145q-4.1-6.129-8.19-12.259a3.5,3.5,0,0,1,.122-4.245,3.329,3.329,0,0,1,2.528-1.329C743.759,770.52,743.849,770.506,743.929,770.5Z" transform="translate(-728.446 -769.041)" fill="#3f6fba"/>
      <path id="Path_329" data-name="Path 329" d="M821.857,933.134a3.546,3.546,0,0,1-3.105,3.505,3.593,3.593,0,0,1-3.926-2.893c-.574-2.954-1.169-5.9-1.756-8.855q-.574-2.886-1.152-5.771c-.036-.178.014-.255.184-.3a2.072,2.072,0,0,0,.478-.2c.184-.109.285-.068.4.107.648.988,1.306,1.969,1.963,2.951q3.145,4.708,6.292,9.414A3.438,3.438,0,0,1,821.857,933.134Z" transform="translate(-788.07 -892.422)" fill="#3f6fba"/>
      <path id="Path_330" data-name="Path 330" d="M843.927,836.758a3.6,3.6,0,0,1-3.08,3.558c-3.2.626-6.405,1.268-9.608,1.9q-2.4.477-4.8.962c-.217.044-.346.008-.39-.228a1.378,1.378,0,0,0-.113-.3c-.166-.37-.167-.369.183-.6q5.759-3.847,11.517-7.7a6.764,6.764,0,0,1,1.671-.953,3.541,3.541,0,0,1,4.576,2.893A2.664,2.664,0,0,1,843.927,836.758Z" transform="translate(-799.671 -821.323)" fill="#3f6fba"/>
      <path id="Path_331" data-name="Path 331" d="M791.811,765.3a9.261,9.261,0,0,1-.318,2.073c-.562,2.873-1.138,5.743-1.71,8.614-.311,1.56-.627,3.12-.929,4.682-.038.193-.121.25-.3.234-.1-.009-.2-.007-.3-.007-.555,0-.465.1-.582-.485q-.9-4.475-1.783-8.953c-.365-1.836-.733-3.672-1.092-5.509a3.549,3.549,0,1,1,7.007-1.12A3.6,3.6,0,0,1,791.811,765.3Z" transform="translate(-765.428 -761.759)" fill="#3f6fba"/>
      <path id="Path_332" data-name="Path 332" d="M831.285,927.624a3.38,3.38,0,0,1-2.969-1.573q-4.15-6.2-8.292-12.4c-.116-.173-.13-.281.052-.4a1.212,1.212,0,0,0,.348-.349c.116-.175.224-.18.4-.06q2.381,1.609,4.773,3.2,3.781,2.526,7.563,5.05a3.556,3.556,0,0,1-1.381,6.524A3.385,3.385,0,0,1,831.285,927.624Z" transform="translate(-794.762 -887.597)" fill="#3f6fba"/>
      <path id="Path_333" data-name="Path 333" d="M677.856,911.144a3.507,3.507,0,0,1,2.863-3.483q4.818-.948,9.632-1.911,2.51-.5,5.02-1a.228.228,0,0,1,.311.183,2.95,2.95,0,0,0,.218.525c.081.149.055.222-.087.316-1.424.945-2.842,1.9-4.264,2.85q-4.081,2.725-8.163,5.447a3.544,3.544,0,0,1-5.526-2.407A3.383,3.383,0,0,1,677.856,911.144Z" transform="translate(-676.351 -880.911)" fill="#3f6fba"/>
      <path id="Path_334" data-name="Path 334" d="M792.851,882.4a3.256,3.256,0,0,1-3.283,3.291,3.291,3.291,0,1,1,3.283-3.291Z" transform="translate(-766.707 -859.554)" fill="#3f6fba"/>
    </g>
  </g>
</svg>
