<svg id="Group_375" data-name="Group 375" xmlns="http://www.w3.org/2000/svg" width="66.26" height="66.247" viewBox="0 0 66.26 66.247">
  <g id="Group_369" data-name="Group 369" transform="translate(8.03 11.6)">
    <path id="Path_296" data-name="Path 296" d="M-1034.791,908.27l-.107-.015-.012-.211-.006-.62v-.168l0-.057q-.019-1.125-.039-2.25a4.827,4.827,0,0,0,0-.843q0-.421,0-.843t0-.845v-.841q0-.423,0-.846,0-.365,0-.73l0-1.012v-.731q0-1.266-.009-2.532v-.895a3.464,3.464,0,0,0-.019-.683,5.589,5.589,0,0,0,.019-1v-.792l.005-.336q0-.73,0-1.461v-.224l0-.057v-1.351q0-.421,0-.841l0-.845.005-.506a7.307,7.307,0,0,0,.006-1.109,4.949,4.949,0,0,0,.029-.968l.016-.9.032-1.177a2.607,2.607,0,0,0,.02-.622l.066-1.125a.026.026,0,0,0,.007-.044.251.251,0,0,0,.033-.18c.007-.21.093-.3.314-.23a2.3,2.3,0,0,0,.323.057l.385.148.513.251.81.546a4.391,4.391,0,0,1,1.273,1.757l.24.678.162.557.062.23.212,1.01a2.273,2.273,0,0,0,.084.567l.143,1.279.018.463a.917.917,0,0,0,.029.348.173.173,0,0,0,.007.154l.01.56q0,.4,0,.791c0,.826-.059,1.649-.107,2.472q-.031.367-.063.734l-.1.837-.125.962-.132.883a.111.111,0,0,0-.037.129,4.23,4.23,0,0,0-.122.729,3.187,3.187,0,0,0-.167.787l-.266,1.065-.178.678-.547,1.8a1.7,1.7,0,0,0-.142.49l-.63,1.847-.284.819-.7,1.906a4.417,4.417,0,0,0-.288.734l-.109.279a2.675,2.675,0,0,0-.235.564Z" transform="translate(1060.16 -861.901)" fill="#ddad44"/>
    <path id="Path_297" data-name="Path 297" d="M-1060.935,907.868l-.034.374-.043.012-.376-.838-.3-.788-.214-.543a.407.407,0,0,0-.093-.246,7.43,7.43,0,0,0-.38-1.023l.007-.013-.039-.084-.469-1.355-.368-1.065a10.992,10.992,0,0,0-.382-1.183l-.046-.126h.01c-.024-.065-.008-.147-.082-.19l.012.008.009-.011-.261-.913-.234-.847-.176-.7-.26-1.1-.078-.4-.215-1.175q-.058-.368-.116-.735a.249.249,0,0,0-.033-.18.08.08,0,0,0-.006-.1l-.171-1.574a1.449,1.449,0,0,0-.038-.512l-.01-.12a.08.08,0,0,0-.006-.1c-.014-.465-.04-.931-.039-1.4,0-.959.019-1.917.029-2.876v-.117q.031-.786.063-1.571a1.7,1.7,0,0,0,.051-.565,7.677,7.677,0,0,1,.442-2.02l.3-.675a.052.052,0,0,0,.018-.079l.024.006.014-.02.069-.128.5-.732.328-.4.386-.4.51-.445.574-.376.162-.079c.124-.036.249-.071.372-.11.225-.071.355-.016.379.242.022.241.069.479.105.719l.056.84.008.117q.022.785.043,1.57l.013.341c-.014.848-.017,1.7.029,2.542a10.683,10.683,0,0,0,.009,1.335,5.347,5.347,0,0,0,0,.842v.845l0,.841v5.906q0,.421,0,.841v3.374l-.007.844c-.009.569-.021,1.137-.025,1.706q-.015,2.1-.024,4.2Z" transform="translate(1085.464 -861.894)" fill="#ddad44"/>
    <path id="Path_298" data-name="Path 298" d="M-1185.967,875.942a.1.1,0,0,0,.021-.051l.268-.453c.411-.595.834-1.181,1.285-1.748l.08-.092.616-.672.106-.122.056-.057.056-.056.627-.61.056-.057.056-.056.056-.056.064-.043.648-.593a.365.365,0,0,0,.173-.151l.872-.708c.573-.421,1.153-.83,1.757-1.206l1.532-.715.839-.319.088-.036.016,0,.011-.012.68-.207.2-.063a2.736,2.736,0,0,0,.64-.173l.973-.2.02-.009.184-.034a2.45,2.45,0,0,0,.567-.08l.785-.091.056-.008.244-.035c.837-.007,1.674-.064,2.512-.013l.169.008a.17.17,0,0,0,.154.006.822.822,0,0,0,.35.038l.9.114.952.149.4.084.129.031h-.005l.662.253c.032.129-.059.151-.151.179-.146.044-.292.093-.437.14a11.808,11.808,0,0,0-1.661.691l-.676.3-.786.321a.129.129,0,0,0-.126.048l-1.052.354-.728.22-.677.176-.171.047-.786.181a3.926,3.926,0,0,0-.79.224l-.118.032a.029.029,0,0,0-.044.015,14.1,14.1,0,0,0-1.693.559,3.981,3.981,0,0,0-.786.283,18.1,18.1,0,0,0-1.742.68l-.456.187a5.1,5.1,0,0,0-.8.354v-.008a.039.039,0,0,0-.039.023l-.116.055-.072.026v0a7.1,7.1,0,0,0-.934.432,2.363,2.363,0,0,0-.571.275,1.38,1.38,0,0,0-.409.193v0l-.111.063v-.006l-.111.063,0-.006-.337.173.019.012-.017-.015-.155.085,0,0a3.705,3.705,0,0,0-.695.372h-.011a.023.023,0,0,0-.024.022l-.115.059a6.9,6.9,0,0,0-.9.507.73.73,0,0,0-.3.161,2.708,2.708,0,0,0-.546.295c-.1.046-.2.1-.3.135C-1185.675,875.853-1185.783,876.016-1185.967,875.942Z" transform="translate(1185.967 -850.942)" fill="#ddad44"/>
    <path id="Path_299" data-name="Path 299" d="M-1081.357,769.752c.094-.008.155-.16.273-.063v0l.836.807.042.042.807.837a15.545,15.545,0,0,1,1.279,1.777.482.482,0,0,0,.163.253l.067.072-.014-.008.06.069,0,.006a.5.5,0,0,0,.67.195,3.174,3.174,0,0,1,.421-.123l.735-.111.786-.059a.351.351,0,0,0,.227-.03c.618,0,1.237-.03,1.855.012l.508.077c.2.027.237.16.214.332a6.908,6.908,0,0,1-.559,1.417.023.023,0,0,0-.023.024v.015l-.062.111,0,0a16.031,16.031,0,0,1-2.13,2.691l-.763.81a.2.2,0,0,0-.109.12c-.085.106-.284.152-.21.344.175.456.361.907.542,1.36a5.622,5.622,0,0,0,.279.841c.017.072.032.145.051.217a5.33,5.33,0,0,1,.257,2.014.363.363,0,0,1-.448.278c-.119-.016-.24-.026-.359-.039a10.146,10.146,0,0,1-1.736-.548l-.74-.3-.158-.069a4.6,4.6,0,0,0-.736-.338l-1.8-.872a.286.286,0,0,0-.333-.028c-.43.224-.868.432-1.3.646l-.9.432-.387.167-.568.227-.747.267-1.616.41c-.172-.018-.33.106-.505.048q.013-.645.025-1.289a.833.833,0,0,0,.036-.338l.308-1.18.581-1.411.226-.447a.172.172,0,0,0-.035-.224c-.365-.372-.726-.75-1.088-1.125a1.688,1.688,0,0,0-.331-.346l-.449-.5-.4-.5-.273-.345-.513-.726-.1-.161-.387-.686c-.162-.374-.317-.751-.49-1.119-.061-.131-.046-.182.1-.192l.019,0h.088l.026,0,.077-.014.021.014.021-.014,1.638-.077h.565l.841.049.676.07c.2.061.409.123.614.182a.592.592,0,0,0,.51-.02,1.349,1.349,0,0,0,.625-.554l.182-.222a3.677,3.677,0,0,0,.447-.581,2.853,2.853,0,0,0,.381-.487,1.648,1.648,0,0,0,.339-.4l.454-.49.061-.066-.013-.008.013.009.278-.278.066-.06.529-.441A1.96,1.96,0,0,0-1081.357,769.752Zm-3.361,6.73-.067-.066.011,0a2.268,2.268,0,0,0-.629-.511l.009.014-.073-.066a.819.819,0,0,0-.344-.2,1.323,1.323,0,0,0-.175-.085c-.124-.04-.3-.1-.366,0-.09.146.085.235.186.324l0-.012.073.066a12.691,12.691,0,0,1,1.573,1.34l.052.052a15.208,15.208,0,0,1,1.069,1.36l.094.172h-.006a.316.316,0,0,1-.141.427c-.075.053-.147.11-.221.166a1.755,1.755,0,0,0-.51.268.81.81,0,0,0-.33.244,1.867,1.867,0,0,0-.516.582.613.613,0,0,0-.206.546c.013.062.086.07.141.06.218-.037.312-.211.405-.383a.079.079,0,0,0,0-.027l.286-.384a5.554,5.554,0,0,1,1.852-.852l.622-.115a7.267,7.267,0,0,1,1.076-.031l.017.016.021-.008.06.016.513.066.782.235a.123.123,0,0,0,.118.049l.085.039.005-.005.112.062v-.008l.58.374,0,0,.109.077,0-.014h-.014l.073.066c.167.161.324.333.5.479.151.124.392.362.5.24.156-.174-.109-.374-.238-.523a5.428,5.428,0,0,0-1.419-1.166.381.381,0,0,1-.242-.4,6.112,6.112,0,0,1,.477-.812l-.012-.009.06-.074a.476.476,0,0,0,.154-.227l.05-.06h0l.412-.478.435-.454.469-.4-.009.006.106-.083.222-.144.08-.047.005,0a1.982,1.982,0,0,0,.542-.421c.045-.049.086-.1.057-.172s-.106-.062-.168-.059a.96.96,0,0,0-.533.2l0,0a.039.039,0,0,0-.039.023,2.021,2.021,0,0,0-.556.365,6.04,6.04,0,0,0-1.695,1.941,1.5,1.5,0,0,0-.242.388l-.437.452a1.387,1.387,0,0,1-.61.181c-.425-.061-.506-.136-.573-.55-.028-.174-.044-.351-.065-.527l-.049-1.01-.007-.621a4.785,4.785,0,0,0-.033-.8.865.865,0,0,0-.006-.378v-1.48l-.071,0-.1,2.044a.288.288,0,0,0-.006.209,1.11,1.11,0,0,0-.034.409l-.062.9q-.054.5-.108,1.008l-.133.45a.023.023,0,0,0-.022.024l.007.009-.058.07,0-.009-.155.122a.85.85,0,0,1-.817-.155,2.638,2.638,0,0,1-.47-.517,8.326,8.326,0,0,0-.709-1.006,2.333,2.333,0,0,0-.455-.526l0,.01-.068-.067.011.01-.067-.066.011.01-.068-.066.011.01-.068-.067.011.01-.068-.066Z" transform="translate(1106.34 -769.656)" fill="#ddad44"/>
    <path id="Path_300" data-name="Path 300" d="M-1172.7,886.327a5.789,5.789,0,0,0,.9-.232l1.69-.4.118-.033.049-.013c.08-.016.16-.034.241-.048.053-.009.121-.026.083.073l.005.01-.073.072a13.025,13.025,0,0,0-1.892,2.308.023.023,0,0,0-.022.023l0,.012-.249.358a2.861,2.861,0,0,0-.391.565q-.6.817-1.125,1.688a.125.125,0,0,0-.063.109.023.023,0,0,0-.023.024l.007.01-.052.075.007-.009a4.855,4.855,0,0,0-.474.744,1.249,1.249,0,0,1-1.08.626c-.584.078-1.171.071-1.756.119l-1.3.029a1.281,1.281,0,0,0-.443.013l-.843.007h-1.687l-2.14-.054a7.621,7.621,0,0,1-1.5-.163c-.141-.042-.346-.029-.378-.187s.17-.22.274-.321a.977.977,0,0,1,.087-.068l.346-.219,1.679-.959,1.638-.87,1.679-.823,1.69-.742.952-.385a2.094,2.094,0,0,0,.558-.22l.175-.055.956-.335.845-.28a2.218,2.218,0,0,0,.558-.172l.228-.062A4.015,4.015,0,0,0-1172.7,886.327Z" transform="translate(1185.249 -866.276)" fill="#ddad44"/>
    <path id="Path_301" data-name="Path 301" d="M-986.318,876.669l-1.014-.7-.077-.023.009-.024-.02-.016-.187-.11a2.67,2.67,0,0,0-.578-.351,16.949,16.949,0,0,0-1.685-.879,6.368,6.368,0,0,0-.838-.392l-.164-.075a3.688,3.688,0,0,0-.681-.313,6.443,6.443,0,0,0-.948-.407l-.118-.052-.725-.315a4.9,4.9,0,0,0-.792-.307,16.77,16.77,0,0,0-1.749-.671,3.819,3.819,0,0,0-.784-.281,16.026,16.026,0,0,0-1.687-.565,5.938,5.938,0,0,0-.9-.268,12.326,12.326,0,0,0-1.683-.39l-.846-.18-.84-.3-.343-.151-.668-.362a2.415,2.415,0,0,0-.624-.315,1.256,1.256,0,0,0-.385-.175,1.61,1.61,0,0,0-.515-.215,4.129,4.129,0,0,0-.838-.289c-.108-.116-.314-.053-.4-.216a1.644,1.644,0,0,0,.447-.121l.682-.183.837-.16.056-.008.178-.033a2.647,2.647,0,0,0,.665-.064l2.476-.056a1.123,1.123,0,0,0,.434.006l.122.01a.9.9,0,0,0,.4.03l.841.059a3.528,3.528,0,0,0,.678.059l1.008.157.846.183,1.738.6a4.52,4.52,0,0,0,.736.306l.154.064.689.33a16.83,16.83,0,0,1,1.734,1.134l.095.078.065.043.056.057.636.522.229.189.1.081,0-.014h-.014a3.811,3.811,0,0,0,.53.489l0,0,.1.086a1.52,1.52,0,0,0,.338.32l.011.013.018.02.368.348a2.635,2.635,0,0,0,.451.451l.327.343a1,1,0,0,0,.27.281l.067.072-.013-.008.067.066-.011-.01.068.066-.012-.01.06.069-.009.006.364.419.135.17.076.078-.008-.011.06.069-.013,0,.079.1h0l.564.842h0c.094.177.2.351.276.535C-986.305,876.483-986.192,876.574-986.318,876.669Z" transform="translate(1036.323 -851.365)" fill="#ddad44"/>
    <path id="Path_302" data-name="Path 302" d="M-964.4,891.58l1.323.849-.639.1-1.525.2a3.837,3.837,0,0,0-.738.068l-.068.005a.021.021,0,0,0-.027,0l-1.025.089-.676.023-.84.045-.625.02-1.062-.009-.847-.075-1.008-.141c-.505-.1-1.024-.111-1.524-.243a1.821,1.821,0,0,1-.791-.515l-.1-.113c-.395-.591-.725-1.224-1.148-1.8a3.173,3.173,0,0,0-.431-.625l-.113-.169a15.152,15.152,0,0,0-1.187-1.626,3.844,3.844,0,0,0-.432-.574l-.245-.321-.565-.734-.049-.059,0-.056,1.521.276,1.009.274.845.239,1.639.558.894.329a1,1,0,0,0,.339.122,1.384,1.384,0,0,0,.394.16l.948.38,1.526.638,1.011.459.016.006.879.415a4.882,4.882,0,0,0,.736.359.464.464,0,0,0,.226.113l.678.357.821.452Z" transform="translate(1013.275 -866.546)" fill="#ddad44"/>
    <path id="Path_303" data-name="Path 303" d="M-1024.021,877.463a1.925,1.925,0,0,0-.392-.4,1.874,1.874,0,0,0-.451-.389,14.133,14.133,0,0,0-1.19-.777c.1-.1.243-.072.346-.139l1.467-.374.673-.071.168-.008.673-.014.23.024a6.953,6.953,0,0,1,1.852.657,13.394,13.394,0,0,1,1.519,1.041l.278.239a2.047,2.047,0,0,0,.4.375l.115.11.057.057a.719.719,0,0,0,.215.23l.684.781.047.063,1.17,1.574a5.712,5.712,0,0,0,.509.8l-.008-.008.072.115h0l.516.885a.96.96,0,0,0,.179.335,2.339,2.339,0,0,0,.271.508,5.419,5.419,0,0,0,.391.794,2.159,2.159,0,0,0,.27.572h-.008a.038.038,0,0,0,.023.039.113.113,0,0,0,.053.12l.054.116-.005,0a5.642,5.642,0,0,0,.355.836,4.883,4.883,0,0,0,.323.8l.049.145.209.576.377,1.062a3.138,3.138,0,0,0,.219.673l.048.175.192.674.272.953.4,1.7.215,1,.122.679.162.895.1.714-.045.01-.521-.716-.048-.064a4.532,4.532,0,0,0-.492-.733l-.074-.087,0-.019a1.617,1.617,0,0,0-.332-.472l.014,0a.042.042,0,0,0-.026-.038.525.525,0,0,0-.147-.23l-.067-.072,0,.014.013-.006a6.106,6.106,0,0,0-.567-.851,6.733,6.733,0,0,0-.587-.878l-.221-.337a3.09,3.09,0,0,0-.384-.569,3.966,3.966,0,0,0-.456-.676l-.11-.165q-.521-.84-1.119-1.625a5.768,5.768,0,0,0-.518-.732h0l-.049-.06a.111.111,0,0,0-.064-.1c-.393-.577-.788-1.153-1.229-1.695a1.287,1.287,0,0,0-.283-.4,2,2,0,0,0-.335-.447,2.675,2.675,0,0,0-.384-.514l0,0c0-.045-.019-.084-.069-.1l-.218-.284a18.252,18.252,0,0,0-1.224-1.577,2.269,2.269,0,0,0-.357-.443h0l-.049-.06-.267-.34-.481-.608a.39.39,0,0,0-.154-.18l-.049-.065h0l-1.918-2.518A1.883,1.883,0,0,0-1024.021,877.463Z" transform="translate(1052.704 -857.686)" fill="#ddad44"/>
    <path id="Path_304" data-name="Path 304" d="M-1061.3,848.136l.734-.221a1.067,1.067,0,0,1,.894.436c.472.539.933,1.087,1.4,1.631.034.039.048.1.148.108l-.147-1.1-.111-.9a7.836,7.836,0,0,1-.042-1.01.607.607,0,0,1,.335-.418,2,2,0,0,1,1-.106c.347.106.636.264.628.692a4.893,4.893,0,0,0-.174.843,2.567,2.567,0,0,0-.105.62c-.117.461-.156.935-.251,1.489l.688-.832a1.415,1.415,0,0,0,.3-.347l.5-.576.281-.3a1.679,1.679,0,0,1,.552-.3,3.032,3.032,0,0,1,.846.177l.447.159c.263.057.3.17.107.368a2.234,2.234,0,0,0-.223.319,2.449,2.449,0,0,0-.386.514,1.575,1.575,0,0,0-.293.384,8.987,8.987,0,0,1-1.453,1.52,6.226,6.226,0,0,1-.845.45l-.842.13h-.17l-.168-.006-.392-.037-.771-.148-.417-.272-.449-.443-.322-.352-.459-.556-.3-.39-1-1.365.287-.126Z" transform="translate(1082.452 -833.718)" fill="#ddad44"/>
    <path id="Path_305" data-name="Path 305" d="M-1005.578,907.529q-.022-.565-.045-1.129l-.049-.84-.067-.734a4.371,4.371,0,0,0-.206-1.123l-.039-.356c.071-.016.081.069.134.08l.066.073,0,.01.395.451.461.537.009.014a.031.031,0,0,0,.025.028l.192.232,1.1,1.4.066.081-.005-.01.08.1h0a2.244,2.244,0,0,0,.34.448h0l.05.06a.806.806,0,0,0,.211.283l.067.072,0-.014-.013.006a4.7,4.7,0,0,0,.531.717h0l.05.06.042.058.061.074,0,.005c.394.589.813,1.161,1.251,1.718a.839.839,0,0,0,.233.33,2.2,2.2,0,0,0,.326.459l.437.617.2.276,1.177,1.687.461.672.09.116,1.206,1.8a2.247,2.247,0,0,0,.32.46,1.356,1.356,0,0,0,.265.407l0-.006.06.069-.015,0,.073.11-.006,0a.041.041,0,0,0,.025.037,13.683,13.683,0,0,0,.751,1.184l.06.083,0-.006.063.111-.006,0a11.579,11.579,0,0,1,.9,1.659c-.08.12-.151.007-.209-.02-.348-.165-.691-.341-1.036-.514l-1.705-.888-1.683-.935a1.339,1.339,0,0,0-.4-.226l-.34-.212-.949-.585-.1-.066-.675-.438a1.69,1.69,0,0,0-.4-.273.042.042,0,0,0-.038-.026l0,.013a1.994,1.994,0,0,0-.466-.346l-1.583-1.261-.213-.186-.731-.745-.114-.116a5.817,5.817,0,0,0-.619-.654l-.014-2.36,0-.057v-.168q0-.339-.009-.678,0-.223.009-.447l0-.057Z" transform="translate(1035.98 -881.065)" fill="#ddad44"/>
    <path id="Path_306" data-name="Path 306" d="M-1124.349,905.315a3.085,3.085,0,0,0-.071.621,8.59,8.59,0,0,0-.15,1.4,1.487,1.487,0,0,0-.016.452,17.043,17.043,0,0,0,0,2.529l.011.341.1,1.4c-.042.3.083.6-.01.9l-1.228,1.192a1.679,1.679,0,0,0-.34.329l-.557.481v0l-.01.013a2.163,2.163,0,0,0-.442.35,1.4,1.4,0,0,0-.345.273l-.783.569-.063.047-.785.537-.416.275a.03.03,0,0,0-.025.017l-.011.013-.454.286-1.638.987-.546.32-.285.155a1.4,1.4,0,0,0-.4.211l-1.139.565v-.008a.038.038,0,0,0-.039.023.131.131,0,0,0-.126.049l-.83.345-.847.256c-.072-.131.08-.193.092-.3a.535.535,0,0,0,.154-.247l.621-.982.484-.756,1.08-1.646a1.173,1.173,0,0,0,.229-.345l0-.007.066-.073.263-.4a.039.039,0,0,0,.023-.039h0l1.214-1.76.07-.1.508-.737a.4.4,0,0,0,.155-.228.023.023,0,0,0,.023-.024l-.007-.009.058-.07-.013.009a2.43,2.43,0,0,0,.408-.571l-.014.009.066-.073c.354-.454.684-.926,1-1.408a.023.023,0,0,0,.023-.024l0-.008a1.949,1.949,0,0,0,.31-.425,3.055,3.055,0,0,0,.4-.556l1.238-1.687c.048-.017.061-.058.072-.1l.556-.745a1.3,1.3,0,0,0,.258-.339l.384-.5a20.621,20.621,0,0,1,1.787-2.107c.078.163.011.294.04.418Z" transform="translate(1144.166 -881.611)" fill="#ddad44"/>
    <path id="Path_307" data-name="Path 307" d="M-1127.933,876.32l.228-.149.117-.074,0,0a6.955,6.955,0,0,1,1.793-.688l.453-.07,1.121.009.843.131,1.6.447-.652.372-.106.065a3.351,3.351,0,0,0-.886.753,6.969,6.969,0,0,0-.812.873,7.409,7.409,0,0,0-.726.847h0l-.105.123h0a5.568,5.568,0,0,0-.6.727l-.083.112-.049.059-.056.063-.487.609a18.1,18.1,0,0,0-1.208,1.575l-.1.12a5.862,5.862,0,0,0-.552.728l-.291.4a3.268,3.268,0,0,0-.408.551c-.433.546-.841,1.111-1.232,1.687a7.28,7.28,0,0,0-.637.893l.014-.009-.066.073a.844.844,0,0,0-.207.285l-.3.432,0,0-.047.061c-.386.521-.775,1.038-1.113,1.592a1.121,1.121,0,0,0-.23.331,3.214,3.214,0,0,0-.4.566q-.6.811-1.139,1.665l0,0-.1.133c-.049.017-.062.059-.073.1l-.38.565c-.372.515-.732,1.038-1.056,1.584a1.427,1.427,0,0,0-.252.385,1.245,1.245,0,0,0-.264.4l-.667.958c-.132-.063-.06-.179-.059-.268,0-.155.032-.31.05-.465l.153-.836q.146-.764.292-1.528l.272-1.177.122-.511.547-1.962.181-.569.67-1.906.3-.786.756-1.685.817-1.578a.053.053,0,0,0,.018-.079l.024.007.015-.02.307-.517a.6.6,0,0,0,.153-.247l.614-.935.608-.854h0l.075-.11a.175.175,0,0,0,.094-.116l.049-.059,0,0,.414-.528a17.4,17.4,0,0,1,2.068-2.144l.072-.066,0,.013.455-.331.011,0A.026.026,0,0,0-1127.933,876.32Z" transform="translate(1145.259 -857.729)" fill="#ddad44"/>
    <path id="Path_308" data-name="Path 308" d="M-1160.592,806.6a2.937,2.937,0,0,0-.678.243l-1.687.761-.844.295-.118.033a.029.029,0,0,0-.044.015,4.482,4.482,0,0,1-1.52.2l-.175-.02a.3.3,0,0,1-.288-.385c.017-.137.033-.273.05-.41l.18-.735a7.191,7.191,0,0,1,.724-1.467c.08-.121.2-.262.084-.433a.651.651,0,0,0-.467-.177,3.542,3.542,0,0,1-.953-.374.519.519,0,0,0-.228-.133.042.042,0,0,0-.038-.025l0,.014-.511-.394a6.7,6.7,0,0,1-1.29-1.334.25.25,0,0,1,.145-.339c.115-.058.226-.121.339-.182l.693-.262.1-.019.792-.232.9-.211.513-.072.06-.017.021.008.017-.015c.167-.005.335-.019.5-.013a.787.787,0,0,0,.8-.5,2.634,2.634,0,0,0,.242-.738l.329-.787c.047-.022.047-.067.054-.109l.354-.619a14.089,14.089,0,0,1,1.27-1.566,42.355,42.355,0,0,1,3.034,3.2l.342.553c.023.442.065.468.479.279.127-.058.248-.128.372-.192a6.614,6.614,0,0,1,1-.32l.789-.105.625.035.444.132a.042.042,0,0,0,.038.026l0-.012.067.067-.012-.01.06.069-.014,0a.79.79,0,0,1,.042.411,3.656,3.656,0,0,1-.268.786l.005,0-.062.112.016.012-.014-.014-.033.063-.727,1.216a2.168,2.168,0,0,0-.35.538,1.352,1.352,0,0,0-.255.4.158.158,0,0,0-.014.256c.117.138.219.289.327.435l-.006-.007.06.069-.008.009a.023.023,0,0,0,.022.023l.042.059.067.072v0c.04.072.078.145.12.215a2.929,2.929,0,0,1,.5,1.252.614.614,0,0,1-.437.709l-.112.008h-.113l-.79-.063a7.968,7.968,0,0,0-1.009-.116,5.169,5.169,0,0,0-.845-.11,8.5,8.5,0,0,0-1.123-.148l-.173-.019a3.354,3.354,0,0,0-1.248.062h-.016l-.011.012Zm3.08-3.458-.066.068.01-.013-.1.081-.057.057-.059.049a.147.147,0,0,0-.1.1l-.568.417-.364.149a2.045,2.045,0,0,1-.761-.036l-.053-.008a.924.924,0,0,1-.633-.706c-.115-.431-.14-.875-.219-1.311a2.157,2.157,0,0,0-.056-.564q-.031-.589-.061-1.177a1.083,1.083,0,0,0-.019-.4l-.02-.122q.021-.025-.007-.044a.8.8,0,0,0-.083-.376c-.027-.075-.07-.173-.164-.169s-.11.123-.119.194a3.917,3.917,0,0,0-.023,1.025v.227a4.345,4.345,0,0,0,.061.841l.068.623.029.123a.08.08,0,0,0,.007.1,5.858,5.858,0,0,0,.176,1.067,1.322,1.322,0,0,1-.062.565.6.6,0,0,1-.4.234,1.656,1.656,0,0,1-.842-.245c-.246-.143-.488-.294-.732-.441a.038.038,0,0,0-.039-.023l0,.006a4.968,4.968,0,0,0-1.822-.769c-.173-.054-.409-.158-.49.038-.068.163.168.242.321.3a12.587,12.587,0,0,1,1.8.737l.071.044.141.085-.006-.006.134.093c.014.052.057.064.1.076.348.316.349.323.07.7a.37.37,0,0,0-.026.049l.013,0-.066.073a5.639,5.639,0,0,0-.985,1.24c-.028.05-.094.112-.031.174s.123,0,.173-.034a4.324,4.324,0,0,0,.789-.664,3.693,3.693,0,0,1,1.2-.9,6.777,6.777,0,0,1,2.693-.015,2.715,2.715,0,0,1,.976.639,4.7,4.7,0,0,0,.607.495c.1.066.248.192.35.083.116-.124-.029-.261-.106-.365a6.637,6.637,0,0,0-.988-.95c-.307-.27-.31-.267-.044-.541l.119-.1a8.4,8.4,0,0,0,1.094-.988c.12-.136.375-.318.247-.452-.105-.111-.357.089-.51.224l-.115.073,0,0a1.932,1.932,0,0,0-.411.326l.009,0-.067.067Z" transform="translate(1171.338 -792.107)" fill="#ddad44"/>
    <path id="Path_309" data-name="Path 309" d="M-1123.236,858.943l-.065.024a5.63,5.63,0,0,0-1.218.225l.005,0-.183.036c-.355-.011-.445-.093-.44-.449a1.213,1.213,0,0,1,.778-1.092,1.311,1.311,0,0,1,.929-.02l0-.005.074.06.154.154.061.074,0,0C-1123.061,858.294-1122.929,858.639-1123.236,858.943Z" transform="translate(1135.275 -842.938)" fill="#ddad44"/>
    <path id="Path_310" data-name="Path 310" d="M-989.922,801.708a1.963,1.963,0,0,1-.214-.938l-.014-.018.1-.154.116-.1a2.351,2.351,0,0,1,.841-.184l.678.056,1.065.273a6.548,6.548,0,0,0,.644.264c.139.042.286.158.445.042a3.032,3.032,0,0,1,.508-1l.048-.064.632-.737.265-.282.552-.567a.654.654,0,0,0,.232-.238,4.612,4.612,0,0,0,.612-.605.675.675,0,0,0,.226-.226c.159-.092.254-.358.409-.327s.24.256.359.395a.776.776,0,0,0,.059.056l.129.16a10.166,10.166,0,0,1,1.04,1.644c.115.265.228.531.344.8a2.672,2.672,0,0,0,.453.825l.061.073-.013.009a.675.675,0,0,0,.7.306,2.28,2.28,0,0,0,.582.07l.054.017.1.018.842.16.79.183a10.989,10.989,0,0,1,1.246.416c.237.114.354.271.239.536l-.595.732-.128.124a.032.032,0,0,0-.026.027l-.011.013a9.043,9.043,0,0,1-1.574,1.157c-.46.233-.97.343-1.5.557l.709.676a.032.032,0,0,0,.026.04,2.165,2.165,0,0,1,.495,1.063q0,.311,0,.623l-.092,1.007c-.15.052-.277-.079-.424-.05l-1.8-.492-.733-.243a18.711,18.711,0,0,1-1.748-.805,1.749,1.749,0,0,0-.673-.254,2.2,2.2,0,0,0-1.008,0,3.335,3.335,0,0,0-.735.118l-.954.156-.621.071-1.065.1-.957,0c-.462-.048-.533-.124-.474-.507l.24-.681c.078-.136.164-.268.232-.409.243-.5.644-.9.9-1.388-.345-.586-.755-1.128-1.138-1.689l-.481-.8Zm9.01,4.219-.053-.066v-.02a3.683,3.683,0,0,0-.486-.515.829.829,0,0,0-.268-.238l-.055-.057h0c-.2-.27-.185-.363.072-.577a11.561,11.561,0,0,1,1.1-.706,3.284,3.284,0,0,0,.616-.291l.115-.046a2.137,2.137,0,0,0,.8-.39h-.409a3.541,3.541,0,0,0-2.082.777,2.043,2.043,0,0,0-.446.292l-.394.221a1.379,1.379,0,0,1-.729.162.767.767,0,0,1-.23-.387q0-.366-.005-.733.032-.337.064-.674a.08.08,0,0,0,.006-.1l.033-.18a4.238,4.238,0,0,0,.08-.724l.033-.234.01-.112a8.89,8.89,0,0,0,.169-1.349,1.043,1.043,0,0,0-.014-.413c-.019-.077-.03-.183-.133-.182-.079,0-.107.089-.131.161a4.516,4.516,0,0,0-.222,1.109,4.117,4.117,0,0,0-.115.956.079.079,0,0,0-.007.1.355.355,0,0,0-.033.236q-.015.179-.03.359l-.015.165-.019.152q-.052.365-.1.729c-.129.688-.25.81-.924.933l-.163.031a1.855,1.855,0,0,1-1.048-.389c-.2-.153-.394-.3-.592-.456a.268.268,0,0,0-.157-.127l-.011-.014h0a3.2,3.2,0,0,0-.721-.5.536.536,0,0,0-.409-.135.809.809,0,0,0,.319.429,1.03,1.03,0,0,0,.305.287,5.022,5.022,0,0,0,.628.538l.385.306c.3.288.3.288-.038.562-.064.052-.125.108-.187.162a.512.512,0,0,0-.219.173,2.23,2.23,0,0,0-.706.735c-.032.051-.082.113-.028.177s.125.017.177-.01a2.547,2.547,0,0,0,.659-.458,3.786,3.786,0,0,1,1.695-.734l.791-.058.952.1.51.129a.224.224,0,0,0,.167.065,4.315,4.315,0,0,1,.792.489l.279.349a.987.987,0,0,0,.405.584.269.269,0,0,0,.339.008c.083-.085-.008-.192-.062-.274s-.079-.172-.172-.215l-.105-.124Z" transform="translate(1022.783 -792.355)" fill="#ddad44"/>
    <path id="Path_311" data-name="Path 311" d="M-957.227,859.293a4.467,4.467,0,0,1-.79-.054c-.079-.023-.157-.05-.238-.068-.53-.12-.7-.339-.677-.9l.014-.113a.793.793,0,0,1,.955-.472,2.564,2.564,0,0,1,.785.428l.164.193a2.06,2.06,0,0,1,.184.528l-.033.186-.011.018A.721.721,0,0,1-957.227,859.293Z" transform="translate(996.769 -843.001)" fill="#ddad44"/>
  </g>
  <path id="Path_317" data-name="Path 317" d="M-1202.314,700.049h2.6a2.429,2.429,0,0,0,.29.045,30.043,30.043,0,0,1,5.831.792,32.62,32.62,0,0,1,17.344,10.32,32.55,32.55,0,0,1,8.3,20.226,30.877,30.877,0,0,1-.518,7.862,32.661,32.661,0,0,1-14.041,21.334,32.174,32.174,0,0,1-19.393,5.657,29.955,29.955,0,0,1-4.9-.478,32.8,32.8,0,0,1-22.655-15.611,31.762,31.762,0,0,1-4.434-12.723c-.116-.895-.165-1.794-.261-2.69v-3.266c.016-.109.041-.218.047-.329a29.831,29.831,0,0,1,1.206-7.108,32.849,32.849,0,0,1,18.495-21.219,30.734,30.734,0,0,1,9.843-2.62C-1203.814,700.166-1203.064,700.112-1202.314,700.049Zm1.28,6.473a26.685,26.685,0,0,0-26.675,26.365,26.717,26.717,0,0,0,26.169,26.959,26.664,26.664,0,0,0,27.175-26.62A26.63,26.63,0,0,0-1201.034,706.522Z" transform="translate(1234.153 -700.049)" fill="#ddad44"/>
</svg>
