<svg id="f1Y7x8.tif" xmlns="http://www.w3.org/2000/svg" width="66.26" height="66.247" viewBox="0 0 66.26 66.247">
  <g id="Group_370" data-name="Group 370" transform="translate(0 0)">
    <path id="Path_312" data-name="Path 312" d="M-722.278,700.049h2.6a2.424,2.424,0,0,0,.291.045,30.043,30.043,0,0,1,5.83.792,32.619,32.619,0,0,1,17.344,10.32,32.55,32.55,0,0,1,8.3,20.226,30.882,30.882,0,0,1-.518,7.862,32.661,32.661,0,0,1-14.041,21.334,32.175,32.175,0,0,1-19.394,5.657,29.95,29.95,0,0,1-4.9-.478A32.8,32.8,0,0,1-749.422,750.2a31.764,31.764,0,0,1-4.434-12.723c-.116-.895-.165-1.794-.261-2.69v-3.266c.016-.109.041-.218.047-.329a29.825,29.825,0,0,1,1.206-7.108,32.849,32.849,0,0,1,18.495-21.219,30.733,30.733,0,0,1,9.843-2.62C-723.778,700.166-723.028,700.112-722.278,700.049Zm1.28,6.473a26.685,26.685,0,0,0-26.675,26.365A26.716,26.716,0,0,0-721.5,759.846a26.664,26.664,0,0,0,27.175-26.62A26.63,26.63,0,0,0-721,706.522Z" transform="translate(754.117 -700.049)" fill="#d06551"/>
    <path id="Path_313" data-name="Path 313" d="M-680.71,813.4h-24.412c-.709,0-.712,0-.531-.664a26,26,0,0,1,4.276-8.745.8.8,0,0,1,.712-.36q19.959.011,39.919,0a.831.831,0,0,1,.74.38,25.876,25.876,0,0,1,4.277,8.784c.159.592.152.6-.458.6Z" transform="translate(713.813 -786.368)" fill="#d06551"/>
    <path id="Path_314" data-name="Path 314" d="M-680.705,935.487h24.447c.689,0,.687,0,.5.681a26.124,26.124,0,0,1-4.216,8.652.959.959,0,0,1-.864.436q-19.866-.013-39.731,0a.957.957,0,0,1-.863-.437,25.9,25.9,0,0,1-4.254-8.794c-.14-.525-.128-.538.421-.538Z" transform="translate(713.819 -896.25)" fill="#d06551"/>
  </g>
</svg>
