<svg id="Group_373" data-name="Group 373" xmlns="http://www.w3.org/2000/svg" width="66.26" height="66.247" viewBox="0 0 66.26 66.247">
  <path id="Path_315" data-name="Path 315" d="M166.3,700.049h2.6a2.426,2.426,0,0,0,.291.045,30.045,30.045,0,0,1,5.83.792,33.189,33.189,0,0,1,25.645,30.546,30.881,30.881,0,0,1-.518,7.862A32.661,32.661,0,0,1,186.1,760.629a32.175,32.175,0,0,1-19.394,5.657,29.949,29.949,0,0,1-4.9-.478A32.8,32.8,0,0,1,139.153,750.2a31.763,31.763,0,0,1-4.434-12.723c-.116-.895-.165-1.794-.261-2.69v-3.266c.016-.109.041-.218.047-.329a29.819,29.819,0,0,1,1.206-7.108,32.849,32.849,0,0,1,18.495-21.219,30.731,30.731,0,0,1,9.843-2.62C164.8,700.166,165.547,700.112,166.3,700.049Zm1.28,6.473a26.664,26.664,0,1,0,26.669,26.7A26.685,26.685,0,0,0,167.577,706.522Z" transform="translate(-134.458 -700.049)" fill="#3fa572"/>
  <g id="Cs0S4v.tif" transform="translate(8.577 8.876)">
    <g id="Group_372" data-name="Group 372" transform="translate(0 0)">
      <path id="Path_335" data-name="Path 335" d="M338.6,950.984a4.531,4.531,0,0,1-1.837-.586,3.477,3.477,0,0,1-1.7-2.754c-.125-1.481-.027-2.967-.049-4.451,0-.1,0-.266.167-.136a2.292,2.292,0,0,0,1.833.322,16.588,16.588,0,0,0,8.748-4.179,15.414,15.414,0,0,0,3.771-4.984,2.25,2.25,0,0,0,.223-1.747c-.081-.245.132-.116.2-.093.763.24,1.522.491,2.283.737.482.156.967.3,1.445.469a3.6,3.6,0,0,1,2.613,2.977,4.225,4.225,0,0,1-.278,2.223,14.728,14.728,0,0,1-2.408,3.976,23.566,23.566,0,0,1-10.61,7.429,13.362,13.362,0,0,1-3.612.769.456.456,0,0,0-.1.029Z" transform="translate(-310.158 -902.488)" fill="#3fa572"/>
      <path id="Path_336" data-name="Path 336" d="M220.409,951.021a16.8,16.8,0,0,1-2.333-.391,21.691,21.691,0,0,1-6.846-3.145,22.741,22.741,0,0,1-5.885-5.667,11.987,11.987,0,0,1-1.784-3.353,3.7,3.7,0,0,1,2.452-4.846c1.224-.4,2.451-.8,3.677-1.192.082-.027.181-.1.25-.038s-.014.163-.034.244a1.993,1.993,0,0,0,.132,1.327,14.251,14.251,0,0,0,2.259,3.6,17.435,17.435,0,0,0,7.946,5.309,14.515,14.515,0,0,0,2.919.6,1.842,1.842,0,0,0,1.291-.327c.055-.039.106-.117.184-.077s.051.126.051.193c0,1.342.033,2.686-.01,4.027a3.655,3.655,0,0,1-3.473,3.707.619.619,0,0,0-.1.031Z" transform="translate(-200.45 -902.525)" fill="#3fa572"/>
      <path id="Path_337" data-name="Path 337" d="M185.923,811.118c.047-.512.088-1.024.14-1.535a22.907,22.907,0,0,1,1.248-5.387,21.756,21.756,0,0,1,3.735-6.7,11.3,11.3,0,0,1,2.011-1.939,3.7,3.7,0,0,1,5.3.768c.809,1.071,1.583,2.168,2.37,3.255.067.093.2.236-.065.227a2.023,2.023,0,0,0-1.468.654,16.051,16.051,0,0,0-4.4,7.166,16.72,16.72,0,0,0-.789,5.034,14.581,14.581,0,0,0,.321,2.988,1.954,1.954,0,0,0,.775,1.265c.042.029.11.049.1.109s-.09.077-.147.1c-.726.237-1.451.481-2.181.707a17.663,17.663,0,0,1-2.245.671,3.641,3.641,0,0,1-4-2.168,8.964,8.964,0,0,1-.619-2.662c-.039-.352-.062-.706-.093-1.059Z" transform="translate(-185.923 -787.864)" fill="#3fa572"/>
      <path id="Path_338" data-name="Path 338" d="M271.5,753.306a22.374,22.374,0,0,1,8.434,1.525,10.306,10.306,0,0,1,2.454,1.332,3.787,3.787,0,0,1,1.575,2.876,3.663,3.663,0,0,1-.741,2.373c-.766,1.069-1.545,2.13-2.321,3.192-.049.068-.083.182-.185.167s-.075-.13-.1-.2a2.01,2.01,0,0,0-.948-1.043,15.154,15.154,0,0,0-3.977-1.574,18.088,18.088,0,0,0-6.195-.329,15.069,15.069,0,0,0-5.843,1.886,2.015,2.015,0,0,0-1.009,1.154c-.075.235-.162.066-.22-.013q-.789-1.075-1.57-2.156c-.317-.439-.657-.866-.939-1.327a3.664,3.664,0,0,1,.9-4.936,11.523,11.523,0,0,1,3.384-1.72,21.981,21.981,0,0,1,5.677-1.142C270.461,753.327,271.058,753.376,271.5,753.306Z" transform="translate(-247.091 -753.306)" fill="#3fa572"/>
      <path id="Path_339" data-name="Path 339" d="M406.091,811.867a14.789,14.789,0,0,1-.428,3.652,3.838,3.838,0,0,1-2.781,2.953,3.789,3.789,0,0,1-2.18-.114q-1.853-.6-3.7-1.2c-.072-.023-.181-.02-.2-.113s.09-.1.144-.138a1.98,1.98,0,0,0,.731-1.236,14.633,14.633,0,0,0,.321-3.336,17.719,17.719,0,0,0-1.624-6.881,15.472,15.472,0,0,0-3.391-4.811,3.156,3.156,0,0,0-.969-.7,1.49,1.49,0,0,0-.6-.118c-.074,0-.177.042-.215-.049s.053-.144.1-.206c.379-.527.753-1.058,1.145-1.575.509-.673.949-1.4,1.525-2.022a3.667,3.667,0,0,1,4.964-.4,12.7,12.7,0,0,1,2.988,3.2,23.649,23.649,0,0,1,3.867,9.677A24.67,24.67,0,0,1,406.091,811.867Z" transform="translate(-356.985 -787.881)" fill="#3fa572"/>
      <path id="Path_340" data-name="Path 340" d="M335.062,913.918c0-1.022.006-2.045,0-3.067,0-.232.072-.339.306-.368a1.94,1.94,0,0,0,.731-.24c.195-.113.292-.049.409.117.473.667.959,1.325,1.44,1.986a1.732,1.732,0,0,0,.132.168.311.311,0,0,0,.453.052.3.3,0,0,0,.044-.431c-.222-.322-.455-.636-.685-.953-.292-.4-.581-.809-.88-1.206-.114-.15-.144-.263.016-.406a2.306,2.306,0,0,0,.5-.688.228.228,0,0,1,.319-.137c2.01.659,4.024,1.3,6.03,1.974a2.379,2.379,0,0,1-.029,4.455c-.219.076-.245.146-.147.352a2.51,2.51,0,0,1-3.971,2.91c-.18-.166-.256-.157-.4.029a2.354,2.354,0,0,1-2.684.759,2.417,2.417,0,0,1-1.572-2.264c0-.018,0-.036,0-.053Z" transform="translate(-310.204 -882.821)" fill="#3fa572"/>
      <path id="Path_341" data-name="Path 341" d="M279.717,913.955c0,1.014.008,2.027,0,3.041a2.391,2.391,0,0,1-2.465,2.4,2.282,2.282,0,0,1-1.795-.909c-.13-.168-.2-.2-.385-.04a2.406,2.406,0,0,1-2.725.453,2.437,2.437,0,0,1-1.5-2.272,2.172,2.172,0,0,1,.253-1.107c.083-.16.082-.233-.116-.3a2.386,2.386,0,0,1,.058-4.523c1.95-.641,3.9-1.27,5.854-1.911.189-.062.292-.032.381.151a2.066,2.066,0,0,0,.466.646c.161.145.153.258.028.427-.515.692-1.016,1.394-1.523,2.091-.123.17-.165.343.008.5.14.127.349.069.505-.122.034-.041.064-.085.1-.128.476-.654.958-1.3,1.424-1.965.121-.171.222-.216.412-.108a1.966,1.966,0,0,0,.732.238c.24.029.3.147.3.373C279.712,911.91,279.717,912.933,279.717,913.955Z" transform="translate(-255.479 -882.852)" fill="#3fa572"/>
      <path id="Path_342" data-name="Path 342" d="M304.273,826.874c0-.409,0-.818,0-1.227,0-.324-.095-.456-.316-.452s-.3.132-.3.465c0,.827-.007,1.654,0,2.48,0,.229-.065.342-.3.372a2.279,2.279,0,0,0-.78.26.206.206,0,0,1-.314-.067c-1.245-1.721-2.512-3.427-3.733-5.165a2.179,2.179,0,0,1-.109-2.4,2.245,2.245,0,0,1,2.076-1.259,2.018,2.018,0,0,1,.736.1c.175.065.228,0,.264-.171a2.432,2.432,0,0,1,1.96-2.009,2.494,2.494,0,0,1,2.971,1.969c.039.209.092.261.308.2a2.381,2.381,0,0,1,2.573,3.721c-1.2,1.664-2.414,3.322-3.617,4.985-.1.139-.187.186-.35.1a2.354,2.354,0,0,0-.807-.264c-.2-.028-.267-.128-.262-.323C304.28,827.745,304.273,827.31,304.273,826.874Z" transform="translate(-279.414 -806.997)" fill="#3fa572"/>
      <path id="Path_343" data-name="Path 343" d="M256.788,860.894a2.359,2.359,0,0,1-2.057-1.217,2.271,2.271,0,0,1,.091-2.5c.137-.21.108-.271-.094-.387a2.508,2.508,0,0,1,1-4.685,1.954,1.954,0,0,1,.555.013c.2.033.257-.023.262-.232a2.382,2.382,0,0,1,4.3-1.347c1.225,1.671,2.436,3.351,3.657,5.025.1.135.127.238-.014.365a2.089,2.089,0,0,0-.488.662c-.1.213-.226.224-.425.157-.758-.255-1.52-.5-2.281-.744a1.686,1.686,0,0,0-.31-.073.3.3,0,0,0-.182.566.987.987,0,0,0,.245.1c.785.257,1.57.518,2.359.763.2.063.262.148.221.363a1.991,1.991,0,0,0,0,.8c.046.214-.043.283-.221.341q-1.942.623-3.88,1.256l-1.875.612A3.243,3.243,0,0,1,256.788,860.894Z" transform="translate(-242.192 -833.523)" fill="#3fa572"/>
      <path id="Path_344" data-name="Path 344" d="M357.3,854.635a2.511,2.511,0,0,1-1.3,2.161c-.186.106-.232.168-.094.366a2.372,2.372,0,0,1-2.577,3.629c-1.192-.354-2.369-.758-3.553-1.141-.812-.262-1.622-.529-2.435-.785-.187-.059-.287-.127-.237-.356a1.907,1.907,0,0,0,0-.8c-.048-.226.041-.3.232-.356.755-.237,1.505-.485,2.258-.729l.1-.033c.319-.108.449-.255.395-.444-.065-.223-.256-.274-.609-.16-.787.253-1.575.5-2.359.763-.186.062-.289.037-.38-.148a2.259,2.259,0,0,0-.5-.684c-.128-.117-.11-.215-.017-.343,1.23-1.688,2.448-3.386,3.69-5.066A2.378,2.378,0,0,1,354.2,851.9c.005.295.168.232.326.214a2.5,2.5,0,0,1,2.7,1.89A2.385,2.385,0,0,1,357.3,854.635Z" transform="translate(-319.454 -833.52)" fill="#3fa572"/>
      <path id="Path_345" data-name="Path 345" d="M337.112,938.822a11.046,11.046,0,0,0,3.278-.821,14.438,14.438,0,0,0,7.553-6.823,1.537,1.537,0,0,0,.237-.754c-.01-.242-.083-.293-.319-.227a.639.639,0,0,1-.753-.237.65.65,0,0,1,.086-.811,1.1,1.1,0,0,1,1.727.173,1.744,1.744,0,0,1,.107,1.757,12.35,12.35,0,0,1-1.684,2.774,15.669,15.669,0,0,1-8.661,5.643,13.877,13.877,0,0,1-1.545.286,1.832,1.832,0,0,1-1.81-.776,1.1,1.1,0,0,1,.377-1.53.677.677,0,0,1,.855.106.634.634,0,0,1,0,.832c-.122.179-.081.319.129.372A2.564,2.564,0,0,0,337.112,938.822Z" transform="translate(-310.295 -899.558)" fill="#3fa572"/>
      <path id="Path_346" data-name="Path 346" d="M259.33,939.811a12.008,12.008,0,0,1-2.446-.487,15.554,15.554,0,0,1-9.509-7.88,2.218,2.218,0,0,1-.286-1.59,1.237,1.237,0,0,1,1.406-1.014.911.911,0,0,1,.678.508.581.581,0,0,1-.076.674.6.6,0,0,1-.648.207c-.334-.084-.425,0-.376.351a2.115,2.115,0,0,0,.234.621,14.658,14.658,0,0,0,9.834,7.486,5.155,5.155,0,0,0,1.215.137c.395-.019.471-.145.274-.471a.626.626,0,0,1,.025-.726.654.654,0,0,1,.72-.21,1.079,1.079,0,0,1,.548,1.584A1.762,1.762,0,0,1,259.33,939.811Z" transform="translate(-236.853 -899.569)" fill="#3fa572"/>
      <path id="Path_347" data-name="Path 347" d="M291.545,806.813a13.163,13.163,0,0,0-6.446,1.449,3.2,3.2,0,0,0-.635.389c-.26.226-.229.4.085.517a.652.652,0,0,1,.412.677.683.683,0,0,1-.6.554,1.131,1.131,0,0,1-1.195-1.488,2.027,2.027,0,0,1,1.118-1.289,14.787,14.787,0,0,1,3.25-1.256,15.542,15.542,0,0,1,4.889-.468,14.985,14.985,0,0,1,6.245,1.728,2.17,2.17,0,0,1,1.007.992,1.345,1.345,0,0,1,.028,1.161,1.053,1.053,0,0,1-1.184.612.679.679,0,0,1-.544-.584.651.651,0,0,1,.477-.659c.218-.069.257-.169.137-.365a1.121,1.121,0,0,0-.453-.362,12.448,12.448,0,0,0-3.585-1.331A13.31,13.31,0,0,0,291.545,806.813Z" transform="translate(-266.92 -797.11)" fill="#3fa572"/>
      <path id="Path_348" data-name="Path 348" d="M391.2,841.479a11.2,11.2,0,0,1-.272,2.837,1.713,1.713,0,0,1-1.384,1.382,1.051,1.051,0,0,1-1.206-1.188.59.59,0,0,1,.479-.478.605.605,0,0,1,.619.22c.224.261.4.237.531-.1a4.2,4.2,0,0,0,.231-1.092,14.583,14.583,0,0,0-2.763-10.309,9.172,9.172,0,0,0-1.6-1.746,1.221,1.221,0,0,0-.289-.188c-.25-.109-.36-.035-.379.235a.639.639,0,0,1-.48.629.672.672,0,0,1-.751-.379,1.1,1.1,0,0,1,.744-1.551,1.8,1.8,0,0,1,1.78.529,14.686,14.686,0,0,1,3.28,4.595,15.874,15.874,0,0,1,1.393,5.038A10.569,10.569,0,0,1,391.2,841.479Z" transform="translate(-350.842 -816.96)" fill="#3fa572"/>
      <path id="Path_349" data-name="Path 349" d="M238.255,841.514A15.527,15.527,0,0,1,243,830.288a1.784,1.784,0,0,1,1.777-.539,1.107,1.107,0,0,1,.779,1.5.68.68,0,0,1-.768.437.642.642,0,0,1-.489-.648c-.017-.246-.134-.321-.371-.221a2,2,0,0,0-.59.451,13.95,13.95,0,0,0-3.752,6.8,13.106,13.106,0,0,0-.427,3.72,10.946,10.946,0,0,0,.263,2.138.8.8,0,0,0,.238.467c.114.094.2.1.308-.037a.627.627,0,0,1,.849-.26.708.708,0,0,1,.3.859,1.179,1.179,0,0,1-1.911.447,2.371,2.371,0,0,1-.771-1.591A13.326,13.326,0,0,1,238.255,841.514Z" transform="translate(-229.532 -816.958)" fill="#3fa572"/>
      <path id="Path_350" data-name="Path 350" d="M320.692,890.819a2.506,2.506,0,1,1,2.506-2.5A2.541,2.541,0,0,1,320.692,890.819Z" transform="translate(-296.143 -863.725)" fill="#3fa572"/>
    </g>
  </g>
</svg>
