<svg xmlns="http://www.w3.org/2000/svg" width="26.212" height="26.478" viewBox="0 0 26.212 26.478">
  <g id="Group_357" data-name="Group 357" transform="translate(-1457.026 -3092.809)">
    <path id="Path_156" data-name="Path 156" d="M1472.074,3112.393c-2.286,0-4.572-.009-6.859.006a1.3,1.3,0,0,1-1.309-1.073c-.587-2.776-1.185-5.55-1.78-8.324q-.814-3.8-1.621-7.6c-.041-.192-.107-.243-.294-.24-.63.011-1.261,0-1.891,0a1.2,1.2,0,0,1-1.132-.588,1.16,1.16,0,0,1,.958-1.751c.818-.026,1.639-.028,2.457,0a2.342,2.342,0,0,1,2.2,2.09c.054.448.179.888.274,1.331.15.7.305,1.4.45,2.107a.211.211,0,0,0,.249.2c.972-.006,1.945,0,2.917,0h14.036a2.434,2.434,0,0,1,1.818.681,2.29,2.29,0,0,1,.635,2.176q-.892,4.495-1.795,8.988a2.344,2.344,0,0,1-1.419,1.811,2.48,2.48,0,0,1-1,.181Zm.4-11.49h-8.182c-.219,0-.218,0-.172.214q.932,4.359,1.86,8.719c.035.166.1.214.271.214q6.3-.007,12.6,0c.172,0,.233-.057.265-.221q.863-4.345,1.737-8.688c.048-.239.049-.238-.2-.238Z" transform="translate(0)" fill="#fff"/>
    <path id="Path_157" data-name="Path 157" d="M1575.324,3403.644a2.311,2.311,0,1,1-2.3-2.333A2.306,2.306,0,0,1,1575.324,3403.644Z" transform="translate(-105.631 -286.667)" fill="#fff"/>
    <path id="Path_158" data-name="Path 158" d="M1700.568,3403.626a2.311,2.311,0,1,1,2.3,2.328A2.322,2.322,0,0,1,1700.568,3403.626Z" transform="translate(-226.304 -286.667)" fill="#fff"/>
  </g>
</svg>
