<svg xmlns="http://www.w3.org/2000/svg" width="12.322" height="11.835" viewBox="0 0 12.322 11.835">
  <g id="_09DTq3.tif" data-name="09DTq3.tif" transform="translate(-1699.836 2612.442)">
    <g id="Group_269" data-name="Group 269" transform="translate(1699.836 -2612.442)">
      <path id="Path_42" data-name="Path 42" d="M1704-2602.1a2.334,2.334,0,0,1-1.925,1.465,2.35,2.35,0,0,1-1.828-.507,2.464,2.464,0,0,1-.194-3.675,2.435,2.435,0,0,1-2.1-1.7,2.264,2.264,0,0,1,.111-1.727,2.4,2.4,0,0,1,1.587-1.35,2.25,2.25,0,0,1,2.023.412,2.374,2.374,0,0,1,.955-2.8,2.243,2.243,0,0,1,2.6-.086,2.381,2.381,0,0,1,1.095,2.884,2.25,2.25,0,0,1,2.57-.185,2.327,2.327,0,0,1,1.176,1.51,2.306,2.306,0,0,1-.357,2.006,2.413,2.413,0,0,1-1.78,1.029,2.438,2.438,0,0,1,.7,2.229,2.336,2.336,0,0,1-1.037,1.569,2.36,2.36,0,0,1-2.051.314A2.307,2.307,0,0,1,1704-2602.1Zm.4-5.215h0c0-.182,0-.365,0-.547a.4.4,0,0,0-.58-.337.422.422,0,0,0-.218.413c0,.329,0,.659,0,.989,0,.03.019.073-.02.086s-.047-.029-.067-.049c-.152-.152-.3-.307-.457-.455a.393.393,0,0,0-.457-.076.4.4,0,0,0-.218.4.469.469,0,0,0,.156.289c.278.275.555.552.835.825.059.057.057.091,0,.148-.277.268-.55.54-.823.812a.9.9,0,0,0-.1.12.394.394,0,0,0,.162.581.4.4,0,0,0,.469-.1q.436-.432.867-.868c.049-.05.079-.049.127,0,.2.21.408.416.614.623a3.346,3.346,0,0,0,.3.294.408.408,0,0,0,.485.008.4.4,0,0,0,.034-.611q-.428-.433-.864-.859c-.059-.058-.065-.093,0-.154.276-.27.547-.544.819-.817a.971.971,0,0,0,.1-.113.39.39,0,0,0-.032-.495.406.406,0,0,0-.6.008c-.155.152-.305.311-.458.465-.015.016-.03.045-.057.031s-.011-.038-.011-.058Q1704.4-2607.039,1704.4-2607.317Z" transform="translate(-1697.836 2612.442)" fill="#fff"/>
    </g>
  </g>
</svg>
