<?xml version="1.0" encoding="UTF-8"?>
<svg width="573px" height="21px" viewBox="0 0 573 21" version="1.1" xmlns="http://www.w3.org/2000/svg" xmlns:xlink="http://www.w3.org/1999/xlink">
    <!-- Generator: Sketch 61.2 (89653) - https://sketch.com -->
    <title>组 133</title>
    <desc>Created with Sketch.</desc>
    <g id="Page-1" stroke="none" stroke-width="1" fill="none" fill-rule="evenodd">
        <g id="Artboard" transform="translate(-2685.000000, -1805.000000)" fill="#FFFFFF" fill-rule="nonzero">
            <g id="组-133" transform="translate(2684.000000, 1804.000000)">
                <polygon id="矩形_36" points="68 10.5 507 10.5 507 12.5 68 12.5"></polygon>
                <g id="组_89" transform="translate(0.125000, 0.000000)">
                    <g id="组_87" transform="translate(53.420000, 11.234000) rotate(-90.000000) translate(-53.420000, -11.234000) translate(42.920000, -5.766000)">
                        <polygon id="路径_26" points="10.359 0 0.178 16.851 10.359 22.885 10.378 22.885 20.559 16.851 10.378 0"></polygon>
                        <polygon id="路径_27" points="10.359 33.455 0 18.827 10.359 24.967 10.375 24.967 20.734 18.827 10.375 33.455"></polygon>
                    </g>
                    <g id="组_88" transform="translate(10.875000, 10.826000) rotate(-90.000000) translate(-10.875000, -10.826000) translate(4.375000, 0.826000)">
                        <polygon id="路径_26-2" points="6.158 0 0.106 10.018 6.158 13.6 6.167 13.6 12.22 10.013 6.168 0"></polygon>
                        <polygon id="路径_27-2" points="6.159 19.892 0 11.192 6.159 14.842 6.168 14.842 12.326 11.192 6.168 19.892"></polygon>
                    </g>
                </g>
                <g id="组_90" transform="translate(505.000000, 0.000000)">
                    <g id="组_87-2" transform="translate(17.000000, 11.234000) rotate(-90.000000) translate(-17.000000, -11.234000) translate(6.500000, -5.766000)">
                        <polygon id="路径_26-3" points="10.359 33.454 0.178 16.603 10.359 10.569 10.378 10.569 20.556 16.603 10.378 33.454"></polygon>
                        <polygon id="路径_27-3" points="10.359 0 0 14.628 10.359 8.488 10.375 8.488 20.734 14.628 10.375 0"></polygon>
                    </g>
                    <g id="组_88-2" transform="translate(59.112000, 10.826000) rotate(-90.000000) translate(-59.112000, -10.826000) translate(52.612000, 0.826000)">
                        <polygon id="路径_26-4" points="6.158 19.883 0.106 9.87 6.158 6.283 6.167 6.283 12.22 9.87 6.168 19.883"></polygon>
                        <polygon id="路径_27-4" points="6.159 0 0 8.7 6.159 5.05 6.168 5.05 12.326 8.7 6.168 0"></polygon>
                    </g>
                </g>
            </g>
        </g>
    </g>
</svg>