<?xml version="1.0" encoding="UTF-8"?>
<svg width="76px" height="89px" viewBox="0 0 76 89" version="1.1" xmlns="http://www.w3.org/2000/svg" xmlns:xlink="http://www.w3.org/1999/xlink">
    <!-- Generator: Sketch 61.2 (89653) - https://sketch.com -->
    <title>Combined Shape</title>
    <desc>Created with Sketch.</desc>
    <g id="Page-1" stroke="none" stroke-width="1" fill="none" fill-rule="evenodd">
        <path d="M49.185,2.518 C55.5574652,5.38027675 60.5948687,10.5700795 63.266,17.025 C64.4873861,19.8805854 65.2085639,22.9249571 65.398,26.025 C65.458,26.925 65.463,27.825 65.482,28.725 C65.496,29.43 65.491,29.442 66.218,29.432 C67.7362792,29.341912 69.2528236,29.6352482 70.628,30.285 C73.2993383,31.5472077 75.0665335,34.1692252 75.234,37.119 C75.319,38.092 75.301,39.062 75.301,40.034 C75.305,53.2246667 75.305,66.4153333 75.301,79.606 C75.3933542,81.6976718 74.7235689,83.7517985 73.416,85.387 C71.9529726,87.273562 69.7033516,88.3821458 67.316,88.393 C57.431,88.42 47.538,88.398 37.645,88.399 L8.129,88.399 C4.64928427,88.368515 1.57096427,86.1367431 0.46,82.839 C0.163182439,81.9677787 0.00886642354,81.0543765 0.003,80.134 C0.003,66.0066667 0.005,51.879 0.009,37.751 C-0.0108097992,35.4921852 0.89566255,33.3238797 2.51722879,31.7512515 C4.13879504,30.1786232 6.33385223,29.3390015 8.591,29.428 C9.706,29.428 9.703,29.428 9.747,28.328 C9.78679587,25.7530986 10.1223298,23.1912971 10.747,20.693 C12.0148133,15.9888297 14.4979188,11.7009893 17.947,8.26 C22.1065478,4.01497113 27.5365012,1.2415418 33.414,0.36 C38.7684006,-0.522742791 44.2645568,0.229315106 49.185,2.518 Z M10.8407093,40.3506264 C10.1444936,41.048397 9.80221185,42.0242134 9.91,43.004 L9.91,74.904 C9.80060331,75.8826221 10.1408026,76.8580704 10.8350593,77.5564087 C11.5293161,78.254747 12.5027535,78.6006583 13.482,78.497 L61.812,78.497 C62.7825408,78.5997949 63.7482308,78.2634325 64.4448936,77.5799289 C65.1415564,76.8964253 65.4962707,75.9373244 65.412,74.965 C65.4226667,64.2983333 65.4226667,53.6316667 65.412,42.965 C65.4375991,42.3679264 65.3178348,41.7735658 65.063,41.233 C64.4959013,40.0627021 63.2803301,39.3485885 61.982,39.423 L49.81975,39.41425 L49.81975,39.41425 L13.492,39.414 C12.5119754,39.3083979 11.536925,39.6528558 10.8407093,40.3506264 Z M39.339,49.325 C41.2076115,49.7247198 42.5461337,51.3711396 42.556,53.282 C42.583,55.174 42.562,57.066 42.562,58.958 L42.567,58.955 L42.567,64.255 C42.670623,65.4443681 42.2608514,66.6213022 41.4409751,67.4891369 C40.6210988,68.3569715 39.4693332,68.8329157 38.276,68.797 C37.4671897,68.86959 36.6520602,68.820035 35.858,68.65 C33.9664384,68.2252446 32.6378501,66.5241158 32.684,64.586 C32.647,60.857 32.638,57.126 32.684,53.397 C32.6480957,52.2968005 33.0616843,51.2294034 33.8295161,50.4406307 C34.5973479,49.651858 35.6532328,49.2097051 36.754,49.216 C37.6167632,49.1407698 38.4856325,49.1774069 39.339,49.325 Z M34.767,10.229 C30.69591,10.846707 26.983606,12.9103603 24.31,16.042 C21.2575231,19.5021458 19.6536865,24.0042751 19.831,28.615 C19.846,29.421 19.831,29.423 20.638,29.423 L37.716,29.424 L54.794,29.424 C55.602,29.424 55.632,29.406 55.68,28.581 C55.7214737,27.5192421 55.6601885,26.4559616 55.497,25.406 C55.0172259,21.4850857 53.1963302,17.8507136 50.343,15.119 C46.2770688,11.0168756 40.4479465,9.18685454 34.767,10.229 Z" id="Combined-Shape" fill="#FFFFFF" fill-rule="nonzero"></path>
    </g>
</svg>