<svg xmlns="http://www.w3.org/2000/svg" width="14.772" height="14.77" viewBox="0 0 14.772 14.77">
  <g id="o0mfjc.tif" transform="translate(-1526.172 163.426)">
    <g id="Group_416" data-name="Group 416" transform="translate(1526.172 -163.426)">
      <path id="Path_355" data-name="Path 355" d="M1529.048-156.9a.4.4,0,0,0,.185.019h10.786a.872.872,0,0,1,.72.3.8.8,0,0,1,.14.855.785.785,0,0,1-.646.5,2.185,2.185,0,0,1-.342.023h-10.835a.281.281,0,0,0,.1.133q2.465,2.466,4.932,4.93a.843.843,0,0,1,.263.887.822.822,0,0,1-1.293.421,1.372,1.372,0,0,1-.139-.122q-3.238-3.237-6.475-6.475a.835.835,0,0,1-.171-1.016.723.723,0,0,1,.131-.165q3.293-3.294,6.589-6.586a.822.822,0,0,1,1.365.375.845.845,0,0,1-.25.857q-.7.7-1.4,1.4l-3.548,3.545C1529.124-156.978,1529.092-156.943,1529.048-156.9Z" transform="translate(-1526.172 163.426)" fill="#fff"/>
    </g>
  </g>
</svg>
