<svg xmlns="http://www.w3.org/2000/svg" width="24" height="24" viewBox="0 0 24 24">
  <g id="Group_361" data-name="Group 361" transform="translate(-758 -278)">
    <g id="Ellipse_10" data-name="Ellipse 10" transform="translate(758 278)" stroke="#fff" stroke-width="1">
      <circle cx="12" cy="12" r="12" stroke="none"/>
      <circle cx="12" cy="12" r="11.5" fill="none"/>
    </g>
    <g id="Group_360" data-name="Group 360" transform="translate(-693.064 -2808.057)">
      <path id="Path_156" data-name="Path 156" d="M1463.639,3101.415c-1,0-2.009,0-3.014,0a.571.571,0,0,1-.575-.472c-.258-1.22-.521-2.439-.782-3.658q-.358-1.669-.712-3.339c-.018-.085-.047-.107-.129-.105-.277,0-.554,0-.831,0a.527.527,0,0,1-.5-.258.51.51,0,0,1,.421-.77c.359-.011.72-.012,1.079,0a1.029,1.029,0,0,1,.968.919c.024.2.079.39.12.585.066.309.134.617.2.926a.093.093,0,0,0,.109.088c.427,0,.855,0,1.282,0h6.167a1.07,1.07,0,0,1,.8.3,1.007,1.007,0,0,1,.279.956q-.392,1.975-.789,3.949a1.03,1.03,0,0,1-.624.8,1.086,1.086,0,0,1-.439.079Zm.175-5.049h-3.6c-.1,0-.1,0-.075.094q.409,1.916.817,3.832c.016.073.045.094.119.094q2.768,0,5.536,0c.075,0,.1-.025.116-.1q.379-1.909.763-3.817c.021-.1.021-.1-.086-.1Z" transform="translate(0 0)" fill="#fff"/>
      <path id="Path_157" data-name="Path 157" d="M1572.734,3402.337a1.015,1.015,0,1,1-1.012-1.025A1.013,1.013,0,0,1,1572.734,3402.337Z" transform="translate(-110.141 -298.908)" fill="#fff"/>
      <path id="Path_158" data-name="Path 158" d="M1700.568,3402.328a1.015,1.015,0,1,1,1.01,1.023A1.02,1.02,0,0,1,1700.568,3402.328Z" transform="translate(-235.967 -298.908)" fill="#fff"/>
    </g>
  </g>
</svg>
