<svg xmlns="http://www.w3.org/2000/svg" width="331.585" height="38.175" viewBox="0 0 331.585 38.175">
  <g id="Group_261" data-name="Group 261" transform="translate(-184 -181.429)">
    <g id="Group_91" data-name="Group 91" transform="translate(-250 -3447)">
      <rect id="Rectangle_36" data-name="Rectangle 36" width="234" height="2" transform="translate(501 3649)" fill="#fff"/>
      <g id="Group_89" data-name="Group 89" transform="translate(-0.875 -0.5)">
        <g id="Group_87" data-name="Group 87" transform="translate(470.42 3660.734) rotate(-90)">
          <path id="Path_26" data-name="Path 26" d="M10.181,0,0,16.851l10.181,6.034H10.2l10.181-6.034L10.2,0Z" transform="translate(0.178 0)" fill="#fff"/>
          <path id="Path_27" data-name="Path 27" d="M10.359,14.628,0,0,10.359,6.14h.016L20.734,0,10.375,14.628Z" transform="translate(0 18.827)" fill="#fff"/>
        </g>
        <g id="Group_88" data-name="Group 88" transform="translate(434.875 3656.326) rotate(-90)">
          <path id="Path_26-2" data-name="Path 26" d="M6.052,0,0,10.018,6.052,13.6h.009l6.053-3.587L6.062,0Z" transform="translate(0.106)" fill="#fff"/>
          <path id="Path_27-2" data-name="Path 27" d="M6.159,8.7,0,0,6.159,3.65h.009L12.326,0,6.168,8.7Z" transform="translate(0 11.192)" fill="#fff"/>
        </g>
      </g>
    </g>
    <g id="_09DTq3.tif" data-name="09DTq3.tif" transform="translate(-1223.997 2793.871)">
      <g id="Group_269" data-name="Group 269" transform="translate(1699.836 -2612.442)">
        <path id="Path_42" data-name="Path 42" d="M1717.723-2579.089a7.527,7.527,0,0,1-6.211,4.726,7.583,7.583,0,0,1-5.9-1.635,7.949,7.949,0,0,1-.625-11.853,7.856,7.856,0,0,1-6.761-5.487,7.3,7.3,0,0,1,.357-5.572,7.724,7.724,0,0,1,5.12-4.354,7.26,7.26,0,0,1,6.525,1.329c-1.022-3.729-.076-6.822,3.081-9.029a7.236,7.236,0,0,1,8.372-.277c3.459,2.123,4.578,5.307,3.532,9.3a7.258,7.258,0,0,1,8.291-.6,7.509,7.509,0,0,1,3.792,4.871,7.437,7.437,0,0,1-1.151,6.471,7.784,7.784,0,0,1-5.742,3.319,7.865,7.865,0,0,1,2.25,7.19,7.535,7.535,0,0,1-3.344,5.062,7.612,7.612,0,0,1-6.614,1.015A7.442,7.442,0,0,1,1717.723-2579.089Zm1.279-16.822h0c0-.588.016-1.177,0-1.765a1.274,1.274,0,0,0-1.872-1.087,1.362,1.362,0,0,0-.7,1.332c-.013,1.063,0,2.125-.007,3.189,0,.1.061.236-.063.277-.091.029-.152-.095-.218-.159-.491-.489-.969-.991-1.472-1.467a1.266,1.266,0,0,0-1.474-.244,1.287,1.287,0,0,0-.7,1.291,1.508,1.508,0,0,0,.5.931c.9.888,1.789,1.782,2.695,2.662.191.185.185.295,0,.477-.893.865-1.773,1.742-2.656,2.619a2.856,2.856,0,0,0-.334.387,1.272,1.272,0,0,0,.523,1.875,1.291,1.291,0,0,0,1.512-.31q1.406-1.394,2.8-2.8c.159-.161.255-.158.41,0,.653.676,1.315,1.342,1.98,2.007a10.761,10.761,0,0,0,.981.95,1.317,1.317,0,0,0,1.566.025,1.278,1.278,0,0,0,.111-1.972q-1.382-1.4-2.786-2.771c-.192-.187-.21-.3-.008-.5.889-.869,1.764-1.753,2.641-2.634a3.191,3.191,0,0,0,.317-.365,1.257,1.257,0,0,0-.1-1.6,1.311,1.311,0,0,0-1.929.025c-.5.492-.984,1-1.478,1.5-.05.05-.1.145-.183.1-.061-.034-.037-.122-.037-.186Q1719-2595.014,1719-2595.911Z" transform="translate(-1697.836 2612.442)" fill="#fff"/>
      </g>
    </g>
  </g>
</svg>
